<svg width="54" height="54" viewBox="0 0 54 54" fill="none" xmlns="http://www.w3.org/2000/svg">
<path d="M19.925 30.3607L19.5714 30.0072L18.8643 30.7143L19.2179 31.0678L19.925 30.3607ZM27 38.1429L26.6464 38.4964L27 38.85L27.3536 38.4964L27 38.1429ZM34.7821 31.0678L35.1357 30.7143L34.4286 30.0072L34.075 30.3607L34.7821 31.0678ZM1 27L0.5 27L1 27ZM27 1L27 0.5L27 1ZM27 53L27 52.5L27 53ZM53 27L52.5 27L53 27ZM19.2179 31.0678L26.6464 38.4964L27.3536 37.7893L19.925 30.3607L19.2179 31.0678ZM27.3536 38.4964L34.7821 31.0678L34.075 30.3607L26.6464 37.7893L27.3536 38.4964ZM27.5 38.1429L27.5 14L26.5 14L26.5 38.1429L27.5 38.1429ZM1.5 27C1.5 12.9167 12.9167 1.5 27 1.5L27 0.5C12.3645 0.499999 0.500001 12.3645 0.5 27L1.5 27ZM27 52.5C12.9167 52.5 1.5 41.0833 1.5 27L0.5 27C0.499999 41.6355 12.3645 53.5 27 53.5L27 52.5ZM52.5 27C52.5 41.0833 41.0833 52.5 27 52.5L27 53.5C41.6355 53.5 53.5 41.6355 53.5 27L52.5 27ZM53.5 27C53.5 12.3645 41.6355 0.500001 27 0.5L27 1.5C41.0833 1.5 52.5 12.9167 52.5 27L53.5 27Z" fill="#FEBD9D"/>
</svg>
