<svg width="240" height="605" viewBox="0 0 240 605" fill="none" xmlns="http://www.w3.org/2000/svg">
<g opacity="0.05">
<path opacity="0.91" d="M84.0507 112.917C-101.838 -76.8254 -168.212 27.7794 -173.633 37.2352C-173.909 37.7158 -173.998 38.1878 -173.993 38.7417L-172.416 236.467C-171.423 360.912 -64.34 470.214 43.1103 407.429C90.7921 379.567 132.968 336.701 152.335 270.794C182.369 168.588 99.0433 128.221 84.0507 112.917Z" fill="#FFEFE6"/>
</g>
<g opacity="0.91" filter="url(#filter0_d)">
<path d="M107.532 471.356C40.5718 403.022 -4.96613 387.122 -34.2345 389.14C-63.4642 391.154 -76.8381 411.072 -79.4032 415.384C-79.6342 415.773 -79.7417 416.215 -79.7376 416.728L-79.412 457.528C-78.8197 531.753 -37.8867 603.745 10.8665 640.398C35.2394 658.722 61.4482 668.128 85.4656 664.724C109.427 661.329 131.457 645.145 147.452 611.747C151.283 603.747 154.594 595.171 157.297 585.976C168.197 548.893 158.529 523.12 144.823 505.202C137.953 496.221 130.053 489.195 123.163 483.704C120.462 481.552 117.926 479.642 115.662 477.938C115.035 477.466 114.429 477.01 113.846 476.568C111.182 474.551 108.966 472.819 107.532 471.356Z" stroke="#4F4F4F" stroke-width="2"/>
</g>
<mask id="mask0" mask-type="alpha" maskUnits="userSpaceOnUse" x="-81" y="349" width="203" height="221">
<path opacity="0.69" d="M75.9899 418.098C-34.5653 305.389 -75.5203 363.886 -80.2687 371.756C-80.5964 372.299 -80.743 372.921 -80.7379 373.555L-80.654 384.057C-79.5636 520.549 78.9375 644.819 117.465 513.873V513.873C135.707 451.87 85.0961 427.382 75.9899 418.098Z" fill="#25356A" fill-opacity="0.35"/>
</mask>
<g mask="url(#mask0)">
<ellipse cx="5.41741" cy="346.393" rx="2.83227" ry="3.29908" fill="#FFEFE6"/>
<ellipse cx="14.8583" cy="346.393" rx="2.83227" ry="3.29908" fill="#FFEFE6"/>
<ellipse cx="24.2993" cy="346.393" rx="2.83227" ry="3.29908" fill="#FFEFE6"/>
<ellipse cx="33.7402" cy="346.393" rx="2.83227" ry="3.29908" fill="#FFEFE6"/>
<ellipse cx="43.181" cy="346.393" rx="2.83227" ry="3.29908" fill="#FFEFE6"/>
<ellipse cx="52.6219" cy="346.393" rx="2.83227" ry="3.29908" fill="#FFEFE6"/>
<ellipse cx="62.0629" cy="346.393" rx="2.83227" ry="3.29908" fill="#FFEFE6"/>
<ellipse cx="71.5038" cy="346.393" rx="2.83227" ry="3.29908" fill="#FFEFE6"/>
<ellipse cx="80.9447" cy="346.393" rx="2.83227" ry="3.29908" fill="#FFEFE6"/>
<ellipse cx="90.3856" cy="346.393" rx="2.83227" ry="3.29908" fill="#FFEFE6"/>
<ellipse cx="99.8265" cy="346.393" rx="2.83227" ry="3.29908" fill="#FFEFE6"/>
<ellipse cx="109.267" cy="346.393" rx="2.83227" ry="3.29908" fill="#FFEFE6"/>
<ellipse cx="118.708" cy="346.393" rx="2.83227" ry="3.29908" fill="#FFEFE6"/>
<ellipse cx="5.41741" cy="357.39" rx="2.83227" ry="3.29908" fill="#FFEFE6"/>
<ellipse cx="14.8583" cy="357.39" rx="2.83227" ry="3.29908" fill="#FFEFE6"/>
<ellipse cx="24.2993" cy="357.39" rx="2.83227" ry="3.29908" fill="#FFEFE6"/>
<ellipse cx="33.7402" cy="357.39" rx="2.83227" ry="3.29908" fill="#FFEFE6"/>
<ellipse cx="43.181" cy="357.39" rx="2.83227" ry="3.29908" fill="#FFEFE6"/>
<ellipse cx="52.6219" cy="357.39" rx="2.83227" ry="3.29908" fill="#FFEFE6"/>
<ellipse cx="62.0629" cy="357.39" rx="2.83227" ry="3.29908" fill="#FFEFE6"/>
<ellipse cx="71.5038" cy="357.39" rx="2.83227" ry="3.29908" fill="#FFEFE6"/>
<ellipse cx="80.9447" cy="357.39" rx="2.83227" ry="3.29908" fill="#FFEFE6"/>
<ellipse cx="90.3856" cy="357.39" rx="2.83227" ry="3.29908" fill="#FFEFE6"/>
<ellipse cx="99.8265" cy="357.39" rx="2.83227" ry="3.29908" fill="#FFEFE6"/>
<ellipse cx="109.267" cy="357.39" rx="2.83227" ry="3.29908" fill="#FFEFE6"/>
<ellipse cx="118.708" cy="357.39" rx="2.83227" ry="3.29908" fill="#FFEFE6"/>
<ellipse cx="5.41741" cy="368.387" rx="2.83227" ry="3.29908" fill="#FFEFE6"/>
<ellipse cx="24.2993" cy="368.387" rx="2.83227" ry="3.29908" fill="#FFEFE6"/>
<ellipse cx="33.7402" cy="368.387" rx="2.83227" ry="3.29908" fill="#FFEFE6"/>
<ellipse cx="43.181" cy="368.387" rx="2.83227" ry="3.29908" fill="#FFEFE6"/>
<ellipse cx="52.6219" cy="368.387" rx="2.83227" ry="3.29908" fill="#FFEFE6"/>
<ellipse cx="62.0629" cy="368.387" rx="2.83227" ry="3.29908" fill="#FFEFE6"/>
<ellipse cx="71.5038" cy="368.387" rx="2.83227" ry="3.29908" fill="#FFEFE6"/>
<ellipse cx="80.9447" cy="368.387" rx="2.83227" ry="3.29908" fill="#FFEFE6"/>
<ellipse cx="90.3856" cy="368.387" rx="2.83227" ry="3.29908" fill="#FFEFE6"/>
<ellipse cx="99.8265" cy="368.387" rx="2.83227" ry="3.29908" fill="#FFEFE6"/>
<ellipse cx="109.267" cy="368.387" rx="2.83227" ry="3.29908" fill="#FFEFE6"/>
<ellipse cx="118.708" cy="368.387" rx="2.83227" ry="3.29908" fill="#FFEFE6"/>
<ellipse cx="5.41741" cy="379.384" rx="2.83227" ry="3.29908" fill="#FFEFE6"/>
<ellipse cx="14.8583" cy="379.384" rx="2.83227" ry="3.29908" fill="#FFEFE6"/>
<ellipse cx="24.2993" cy="379.384" rx="2.83227" ry="3.29908" fill="#FFEFE6"/>
<ellipse cx="43.181" cy="379.384" rx="2.83227" ry="3.29908" fill="#FFEFE6"/>
<ellipse cx="52.6219" cy="379.384" rx="2.83227" ry="3.29908" fill="#FFEFE6"/>
<ellipse cx="62.0629" cy="379.384" rx="2.83227" ry="3.29908" fill="#FFEFE6"/>
<ellipse cx="71.5038" cy="379.384" rx="2.83227" ry="3.29908" fill="#FFEFE6"/>
<ellipse cx="80.9447" cy="379.384" rx="2.83227" ry="3.29908" fill="#FFEFE6"/>
<ellipse cx="90.3856" cy="379.384" rx="2.83227" ry="3.29908" fill="#FFEFE6"/>
<ellipse cx="99.8265" cy="379.384" rx="2.83227" ry="3.29908" fill="#FFEFE6"/>
<ellipse cx="109.267" cy="379.384" rx="2.83227" ry="3.29908" fill="#FFEFE6"/>
<ellipse cx="118.708" cy="379.384" rx="2.83227" ry="3.29908" fill="#FFEFE6"/>
<ellipse cx="5.41741" cy="390.381" rx="2.83227" ry="3.29908" fill="#FFEFE6"/>
<ellipse cx="14.8583" cy="390.381" rx="2.83227" ry="3.29908" fill="#FFEFE6"/>
<ellipse cx="24.2993" cy="390.381" rx="2.83227" ry="3.29908" fill="#FFEFE6"/>
<ellipse cx="33.7402" cy="390.381" rx="2.83227" ry="3.29908" fill="#FFEFE6"/>
<ellipse cx="52.6219" cy="390.381" rx="2.83227" ry="3.29908" fill="#FFEFE6"/>
<ellipse cx="62.0629" cy="390.381" rx="2.83227" ry="3.29908" fill="#FFEFE6"/>
<ellipse cx="71.5038" cy="390.381" rx="2.83227" ry="3.29908" fill="#FFEFE6"/>
<ellipse cx="80.9447" cy="390.381" rx="2.83227" ry="3.29908" fill="#FFEFE6"/>
<ellipse cx="90.3856" cy="390.381" rx="2.83227" ry="3.29908" fill="#FFEFE6"/>
<ellipse cx="99.8265" cy="390.381" rx="2.83227" ry="3.29908" fill="#FFEFE6"/>
<ellipse cx="109.267" cy="390.381" rx="2.83227" ry="3.29908" fill="#FFEFE6"/>
<ellipse cx="118.708" cy="390.381" rx="2.83227" ry="3.29908" fill="#FFEFE6"/>
<ellipse cx="5.41741" cy="401.378" rx="2.83227" ry="3.29908" fill="#FFEFE6"/>
<ellipse cx="14.8583" cy="401.378" rx="2.83227" ry="3.29908" fill="#FFEFE6"/>
<ellipse cx="24.2993" cy="401.378" rx="2.83227" ry="3.29908" fill="#FFEFE6"/>
<ellipse cx="33.7402" cy="401.378" rx="2.83227" ry="3.29908" fill="#FFEFE6"/>
<ellipse cx="43.181" cy="401.378" rx="2.83227" ry="3.29908" fill="#FFEFE6"/>
<ellipse cx="52.6219" cy="401.378" rx="2.83227" ry="3.29908" fill="#FFEFE6"/>
<ellipse cx="71.5038" cy="401.378" rx="2.83227" ry="3.29908" fill="#FFEFE6"/>
<ellipse cx="80.9447" cy="401.378" rx="2.83227" ry="3.29908" fill="#FFEFE6"/>
<ellipse cx="90.3856" cy="401.378" rx="2.83227" ry="3.29908" fill="#FFEFE6"/>
<ellipse cx="99.8265" cy="401.378" rx="2.83227" ry="3.29908" fill="#FFEFE6"/>
<ellipse cx="109.267" cy="401.378" rx="2.83227" ry="3.29908" fill="#FFEFE6"/>
<ellipse cx="118.708" cy="401.378" rx="2.83227" ry="3.29908" fill="#FFEFE6"/>
<ellipse cx="5.41741" cy="412.375" rx="2.83227" ry="3.29908" fill="#FFEFE6"/>
<ellipse cx="14.8583" cy="412.375" rx="2.83227" ry="3.29908" fill="#FFEFE6"/>
<ellipse cx="24.2993" cy="412.375" rx="2.83227" ry="3.29908" fill="#FFEFE6"/>
<ellipse cx="33.7402" cy="412.375" rx="2.83227" ry="3.29908" fill="#FFEFE6"/>
<ellipse cx="43.181" cy="412.375" rx="2.83227" ry="3.29908" fill="#FFEFE6"/>
<ellipse cx="52.6219" cy="412.375" rx="2.83227" ry="3.29908" fill="#FFEFE6"/>
<ellipse cx="62.0629" cy="412.375" rx="2.83227" ry="3.29908" fill="#FFEFE6"/>
<ellipse cx="80.9447" cy="412.375" rx="2.83227" ry="3.29908" fill="#FFEFE6"/>
<ellipse cx="90.3856" cy="412.375" rx="2.83227" ry="3.29908" fill="#FFEFE6"/>
<ellipse cx="99.8265" cy="412.375" rx="2.83227" ry="3.29908" fill="#FFEFE6"/>
<ellipse cx="109.267" cy="412.375" rx="2.83227" ry="3.29908" fill="#FFEFE6"/>
<ellipse cx="118.708" cy="412.375" rx="2.83227" ry="3.29908" fill="#FFEFE6"/>
<ellipse cx="5.41741" cy="423.372" rx="2.83227" ry="3.29908" fill="#FFEFE6"/>
<ellipse cx="14.8583" cy="423.372" rx="2.83227" ry="3.29908" fill="#FFEFE6"/>
<ellipse cx="24.2993" cy="423.372" rx="2.83227" ry="3.29908" fill="#FFEFE6"/>
<ellipse cx="33.7402" cy="423.372" rx="2.83227" ry="3.29908" fill="#FFEFE6"/>
<ellipse cx="43.181" cy="423.372" rx="2.83227" ry="3.29908" fill="#FFEFE6"/>
<ellipse cx="52.6219" cy="423.372" rx="2.83227" ry="3.29908" fill="#FFEFE6"/>
<ellipse cx="62.0629" cy="423.372" rx="2.83227" ry="3.29908" fill="#FFEFE6"/>
<ellipse cx="71.5038" cy="423.372" rx="2.83227" ry="3.29908" fill="#FFEFE6"/>
<ellipse cx="90.3856" cy="423.372" rx="2.83227" ry="3.29908" fill="#FFEFE6"/>
<ellipse cx="99.8265" cy="423.372" rx="2.83227" ry="3.29908" fill="#FFEFE6"/>
<ellipse cx="109.267" cy="423.372" rx="2.83227" ry="3.29908" fill="#FFEFE6"/>
<ellipse cx="118.708" cy="423.372" rx="2.83227" ry="3.29908" fill="#FFEFE6"/>
<ellipse cx="5.41741" cy="434.369" rx="2.83227" ry="3.29908" fill="#FFEFE6"/>
<ellipse cx="14.8583" cy="434.369" rx="2.83227" ry="3.29908" fill="#FFEFE6"/>
<ellipse cx="24.2993" cy="434.369" rx="2.83227" ry="3.29908" fill="#FFEFE6"/>
<ellipse cx="33.7402" cy="434.369" rx="2.83227" ry="3.29908" fill="#FFEFE6"/>
<ellipse cx="43.181" cy="434.369" rx="2.83227" ry="3.29908" fill="#FFEFE6"/>
<ellipse cx="52.6219" cy="434.369" rx="2.83227" ry="3.29908" fill="#FFEFE6"/>
<ellipse cx="62.0629" cy="434.369" rx="2.83227" ry="3.29908" fill="#FFEFE6"/>
<ellipse cx="71.5038" cy="434.369" rx="2.83227" ry="3.29908" fill="#FFEFE6"/>
<ellipse cx="80.9447" cy="434.369" rx="2.83227" ry="3.29908" fill="#FFEFE6"/>
<ellipse cx="90.3856" cy="434.369" rx="2.83227" ry="3.29908" fill="#FFEFE6"/>
<ellipse cx="109.267" cy="434.369" rx="2.83227" ry="3.29908" fill="#FFEFE6"/>
<ellipse cx="118.708" cy="434.369" rx="2.83227" ry="3.29908" fill="#FFEFE6"/>
<ellipse cx="5.41741" cy="445.366" rx="2.83227" ry="3.29908" fill="#FFEFE6"/>
<ellipse cx="14.8583" cy="445.366" rx="2.83227" ry="3.29908" fill="#FFEFE6"/>
<ellipse cx="24.2993" cy="445.366" rx="2.83227" ry="3.29908" fill="#FFEFE6"/>
<ellipse cx="33.7402" cy="445.366" rx="2.83227" ry="3.29908" fill="#FFEFE6"/>
<ellipse cx="43.181" cy="445.366" rx="2.83227" ry="3.29908" fill="#FFEFE6"/>
<ellipse cx="52.6219" cy="445.366" rx="2.83227" ry="3.29908" fill="#FFEFE6"/>
<ellipse cx="62.0629" cy="445.366" rx="2.83227" ry="3.29908" fill="#FFEFE6"/>
<ellipse cx="71.5038" cy="445.366" rx="2.83227" ry="3.29908" fill="#FFEFE6"/>
<ellipse cx="80.9447" cy="445.366" rx="2.83227" ry="3.29908" fill="#FFEFE6"/>
<ellipse cx="90.3856" cy="445.366" rx="2.83227" ry="3.29908" fill="#FFEFE6"/>
<ellipse cx="99.8265" cy="445.366" rx="2.83227" ry="3.29908" fill="#FFEFE6"/>
<ellipse cx="118.708" cy="445.366" rx="2.83227" ry="3.29908" fill="#FFEFE6"/>
<ellipse cx="5.41741" cy="456.362" rx="2.83227" ry="3.29908" fill="#FFEFE6"/>
<ellipse cx="14.8583" cy="456.362" rx="2.83227" ry="3.29908" fill="#FFEFE6"/>
<ellipse cx="24.2993" cy="456.362" rx="2.83227" ry="3.29908" fill="#FFEFE6"/>
<ellipse cx="33.7402" cy="456.362" rx="2.83227" ry="3.29908" fill="#FFEFE6"/>
<ellipse cx="43.181" cy="456.362" rx="2.83227" ry="3.29908" fill="#FFEFE6"/>
<ellipse cx="52.6219" cy="456.362" rx="2.83227" ry="3.29908" fill="#FFEFE6"/>
<ellipse cx="62.0629" cy="456.362" rx="2.83227" ry="3.29908" fill="#FFEFE6"/>
<ellipse cx="71.5038" cy="456.362" rx="2.83227" ry="3.29908" fill="#FFEFE6"/>
<ellipse cx="80.9447" cy="456.362" rx="2.83227" ry="3.29908" fill="#FFEFE6"/>
<ellipse cx="90.3856" cy="456.362" rx="2.83227" ry="3.29908" fill="#FFEFE6"/>
<ellipse cx="99.8265" cy="456.362" rx="2.83227" ry="3.29908" fill="#FFEFE6"/>
<ellipse cx="109.267" cy="456.362" rx="2.83227" ry="3.29908" fill="#FFEFE6"/>
<ellipse cx="118.708" cy="456.362" rx="2.83227" ry="3.29908" fill="#FFEFE6"/>
<ellipse cx="5.41741" cy="467.36" rx="2.83227" ry="3.29908" fill="#FFEFE6"/>
<ellipse cx="14.8583" cy="467.36" rx="2.83227" ry="3.29908" fill="#FFEFE6"/>
<ellipse cx="24.2993" cy="467.36" rx="2.83227" ry="3.29908" fill="#FFEFE6"/>
<ellipse cx="33.7402" cy="467.36" rx="2.83227" ry="3.29908" fill="#FFEFE6"/>
<ellipse cx="43.181" cy="467.36" rx="2.83227" ry="3.29908" fill="#FFEFE6"/>
<ellipse cx="52.6219" cy="467.36" rx="2.83227" ry="3.29908" fill="#FFEFE6"/>
<ellipse cx="62.0629" cy="467.36" rx="2.83227" ry="3.29908" fill="#FFEFE6"/>
<ellipse cx="71.5038" cy="467.36" rx="2.83227" ry="3.29908" fill="#FFEFE6"/>
<ellipse cx="80.9447" cy="467.36" rx="2.83227" ry="3.29908" fill="#FFEFE6"/>
<ellipse cx="90.3856" cy="467.36" rx="2.83227" ry="3.29908" fill="#FFEFE6"/>
<ellipse cx="99.8265" cy="467.36" rx="2.83227" ry="3.29908" fill="#FFEFE6"/>
<ellipse cx="109.267" cy="467.36" rx="2.83227" ry="3.29908" fill="#FFEFE6"/>
<ellipse cx="5.41741" cy="478.357" rx="2.83227" ry="3.29908" fill="#FFEFE6"/>
<ellipse cx="14.8583" cy="478.357" rx="2.83227" ry="3.29908" fill="#FFEFE6"/>
<ellipse cx="24.2993" cy="478.357" rx="2.83227" ry="3.29908" fill="#FFEFE6"/>
<ellipse cx="33.7402" cy="478.357" rx="2.83227" ry="3.29908" fill="#FFEFE6"/>
<ellipse cx="43.181" cy="478.357" rx="2.83227" ry="3.29908" fill="#FFEFE6"/>
<ellipse cx="52.6219" cy="478.357" rx="2.83227" ry="3.29908" fill="#FFEFE6"/>
<ellipse cx="62.0629" cy="478.357" rx="2.83227" ry="3.29908" fill="#FFEFE6"/>
<ellipse cx="71.5038" cy="478.357" rx="2.83227" ry="3.29908" fill="#FFEFE6"/>
<ellipse cx="80.9447" cy="478.357" rx="2.83227" ry="3.29908" fill="#FFEFE6"/>
<ellipse cx="90.3856" cy="478.357" rx="2.83227" ry="3.29908" fill="#FFEFE6"/>
<ellipse cx="99.8265" cy="478.357" rx="2.83227" ry="3.29908" fill="#FFEFE6"/>
<ellipse cx="109.267" cy="478.357" rx="2.83227" ry="3.29908" fill="#FFEFE6"/>
<ellipse cx="5.41741" cy="489.353" rx="2.83227" ry="3.29908" fill="#FFEFE6"/>
<ellipse cx="14.8583" cy="489.353" rx="2.83227" ry="3.29908" fill="#FFEFE6"/>
<ellipse cx="24.2993" cy="489.353" rx="2.83227" ry="3.29908" fill="#FFEFE6"/>
<ellipse cx="33.7402" cy="489.353" rx="2.83227" ry="3.29908" fill="#FFEFE6"/>
<ellipse cx="43.181" cy="489.353" rx="2.83227" ry="3.29908" fill="#FFEFE6"/>
<ellipse cx="52.6219" cy="489.353" rx="2.83227" ry="3.29908" fill="#FFEFE6"/>
<ellipse cx="62.0629" cy="489.353" rx="2.83227" ry="3.29908" fill="#FFEFE6"/>
<ellipse cx="71.5038" cy="489.353" rx="2.83227" ry="3.29908" fill="#FFEFE6"/>
<ellipse cx="80.9447" cy="489.353" rx="2.83227" ry="3.29908" fill="#FFEFE6"/>
<ellipse cx="90.3856" cy="489.353" rx="2.83227" ry="3.29908" fill="#FFEFE6"/>
<ellipse cx="99.8265" cy="489.353" rx="2.83227" ry="3.29908" fill="#FFEFE6"/>
<ellipse cx="109.267" cy="489.353" rx="2.83227" ry="3.29908" fill="#FFEFE6"/>
<ellipse cx="118.708" cy="489.353" rx="2.83227" ry="3.29908" fill="#FFEFE6"/>
<ellipse cx="5.41741" cy="500.35" rx="2.83227" ry="3.29908" fill="#FFEFE6"/>
<ellipse cx="14.8583" cy="500.35" rx="2.83227" ry="3.29908" fill="#FFEFE6"/>
<ellipse cx="24.2993" cy="500.35" rx="2.83227" ry="3.29908" fill="#FFEFE6"/>
<ellipse cx="33.7402" cy="500.35" rx="2.83227" ry="3.29908" fill="#FFEFE6"/>
<ellipse cx="43.181" cy="500.35" rx="2.83227" ry="3.29908" fill="#FFEFE6"/>
<ellipse cx="52.6219" cy="500.35" rx="2.83227" ry="3.29908" fill="#FFEFE6"/>
<ellipse cx="62.0629" cy="500.35" rx="2.83227" ry="3.29908" fill="#FFEFE6"/>
<ellipse cx="71.5038" cy="500.35" rx="2.83227" ry="3.29908" fill="#FFEFE6"/>
<ellipse cx="80.9447" cy="500.35" rx="2.83227" ry="3.29908" fill="#FFEFE6"/>
<ellipse cx="90.3856" cy="500.35" rx="2.83227" ry="3.29908" fill="#FFEFE6"/>
<ellipse cx="99.8265" cy="500.35" rx="2.83227" ry="3.29908" fill="#FFEFE6"/>
<ellipse cx="109.267" cy="500.35" rx="2.83227" ry="3.29908" fill="#FFEFE6"/>
<ellipse cx="5.41741" cy="511.347" rx="2.83227" ry="3.29908" fill="#FFEFE6"/>
<ellipse cx="14.8583" cy="511.347" rx="2.83227" ry="3.29908" fill="#FFEFE6"/>
<ellipse cx="24.2993" cy="511.347" rx="2.83227" ry="3.29908" fill="#FFEFE6"/>
<ellipse cx="33.7402" cy="511.347" rx="2.83227" ry="3.29908" fill="#FFEFE6"/>
<ellipse cx="43.181" cy="511.347" rx="2.83227" ry="3.29908" fill="#FFEFE6"/>
<ellipse cx="52.6219" cy="511.347" rx="2.83227" ry="3.29908" fill="#FFEFE6"/>
<ellipse cx="62.0629" cy="511.347" rx="2.83227" ry="3.29908" fill="#FFEFE6"/>
<ellipse cx="71.5038" cy="511.347" rx="2.83227" ry="3.29908" fill="#FFEFE6"/>
<ellipse cx="80.9447" cy="511.347" rx="2.83227" ry="3.29908" fill="#FFEFE6"/>
<ellipse cx="90.3856" cy="511.347" rx="2.83227" ry="3.29908" fill="#FFEFE6"/>
<ellipse cx="99.8265" cy="511.347" rx="2.83227" ry="3.29908" fill="#FFEFE6"/>
<ellipse cx="109.267" cy="511.347" rx="2.83227" ry="3.29908" fill="#FFEFE6"/>
<ellipse cx="5.41741" cy="522.344" rx="2.83227" ry="3.29908" fill="#FFEFE6"/>
<ellipse cx="14.8583" cy="522.344" rx="2.83227" ry="3.29908" fill="#FFEFE6"/>
<ellipse cx="24.2993" cy="522.344" rx="2.83227" ry="3.29908" fill="#FFEFE6"/>
<ellipse cx="33.7402" cy="522.344" rx="2.83227" ry="3.29908" fill="#FFEFE6"/>
<ellipse cx="43.181" cy="522.344" rx="2.83227" ry="3.29908" fill="#FFEFE6"/>
<ellipse cx="52.6219" cy="522.344" rx="2.83227" ry="3.29908" fill="#FFEFE6"/>
<ellipse cx="62.0629" cy="522.344" rx="2.83227" ry="3.29908" fill="#FFEFE6"/>
<ellipse cx="71.5038" cy="522.344" rx="2.83227" ry="3.29908" fill="#FFEFE6"/>
<ellipse cx="80.9447" cy="522.344" rx="2.83227" ry="3.29908" fill="#FFEFE6"/>
<ellipse cx="90.3856" cy="522.344" rx="2.83227" ry="3.29908" fill="#FFEFE6"/>
<ellipse cx="99.8265" cy="522.344" rx="2.83227" ry="3.29908" fill="#FFEFE6"/>
<ellipse cx="109.267" cy="522.344" rx="2.83227" ry="3.29908" fill="#FFEFE6"/>
<ellipse cx="118.708" cy="522.344" rx="2.83227" ry="3.29908" fill="#FFEFE6"/>
<ellipse cx="5.41741" cy="533.341" rx="2.83227" ry="3.29908" fill="#FFEFE6"/>
<ellipse cx="14.8583" cy="533.341" rx="2.83227" ry="3.29908" fill="#FFEFE6"/>
<ellipse cx="24.2993" cy="533.341" rx="2.83227" ry="3.29908" fill="#FFEFE6"/>
<ellipse cx="33.7402" cy="533.341" rx="2.83227" ry="3.29908" fill="#FFEFE6"/>
<ellipse cx="43.181" cy="533.341" rx="2.83227" ry="3.29908" fill="#FFEFE6"/>
<ellipse cx="52.6219" cy="533.341" rx="2.83227" ry="3.29908" fill="#FFEFE6"/>
<ellipse cx="62.0629" cy="533.341" rx="2.83227" ry="3.29908" fill="#FFEFE6"/>
<ellipse cx="71.5038" cy="533.341" rx="2.83227" ry="3.29908" fill="#FFEFE6"/>
<ellipse cx="80.9447" cy="533.341" rx="2.83227" ry="3.29908" fill="#FFEFE6"/>
<ellipse cx="90.3856" cy="533.341" rx="2.83227" ry="3.29908" fill="#FFEFE6"/>
<ellipse cx="99.8265" cy="533.341" rx="2.83227" ry="3.29908" fill="#FFEFE6"/>
<ellipse cx="109.267" cy="533.341" rx="2.83227" ry="3.29908" fill="#FFEFE6"/>
<ellipse cx="118.708" cy="533.341" rx="2.83227" ry="3.29908" fill="#FFEFE6"/>
<ellipse cx="5.41741" cy="544.338" rx="2.83227" ry="3.29908" fill="#FFEFE6"/>
<ellipse cx="14.8583" cy="544.338" rx="2.83227" ry="3.29908" fill="#FFEFE6"/>
<ellipse cx="24.2993" cy="544.338" rx="2.83227" ry="3.29908" fill="#FFEFE6"/>
<ellipse cx="33.7402" cy="544.338" rx="2.83227" ry="3.29908" fill="#FFEFE6"/>
<ellipse cx="43.181" cy="544.338" rx="2.83227" ry="3.29908" fill="#FFEFE6"/>
<ellipse cx="52.6219" cy="544.338" rx="2.83227" ry="3.29908" fill="#FFEFE6"/>
<ellipse cx="62.0629" cy="544.338" rx="2.83227" ry="3.29908" fill="#FFEFE6"/>
<ellipse cx="71.5038" cy="544.338" rx="2.83227" ry="3.29908" fill="#FFEFE6"/>
<ellipse cx="80.9447" cy="544.338" rx="2.83227" ry="3.29908" fill="#FFEFE6"/>
<ellipse cx="90.3856" cy="544.338" rx="2.83227" ry="3.29908" fill="#FFEFE6"/>
<ellipse cx="99.8265" cy="544.338" rx="2.83227" ry="3.29908" fill="#FFEFE6"/>
<ellipse cx="109.267" cy="544.338" rx="2.83227" ry="3.29908" fill="#FFEFE6"/>
<ellipse cx="118.708" cy="544.338" rx="2.83227" ry="3.29908" fill="#FFEFE6"/>
<ellipse cx="5.41741" cy="555.335" rx="2.83227" ry="3.29908" fill="#FFEFE6"/>
<ellipse cx="14.8583" cy="555.335" rx="2.83227" ry="3.29908" fill="#FFEFE6"/>
<ellipse cx="24.2993" cy="555.335" rx="2.83227" ry="3.29908" fill="#FFEFE6"/>
<ellipse cx="33.7402" cy="555.335" rx="2.83227" ry="3.29908" fill="#FFEFE6"/>
<ellipse cx="43.181" cy="555.335" rx="2.83227" ry="3.29908" fill="#FFEFE6"/>
<ellipse cx="52.6219" cy="555.335" rx="2.83227" ry="3.29908" fill="#FFEFE6"/>
<ellipse cx="62.0629" cy="555.335" rx="2.83227" ry="3.29908" fill="#FFEFE6"/>
<ellipse cx="71.5038" cy="555.335" rx="2.83227" ry="3.29908" fill="#FFEFE6"/>
<ellipse cx="80.9447" cy="555.335" rx="2.83227" ry="3.29908" fill="#FFEFE6"/>
<ellipse cx="90.3856" cy="555.335" rx="2.83227" ry="3.29908" fill="#FFEFE6"/>
<ellipse cx="99.8265" cy="555.335" rx="2.83227" ry="3.29908" fill="#FFEFE6"/>
<ellipse cx="109.267" cy="555.335" rx="2.83227" ry="3.29908" fill="#FFEFE6"/>
<ellipse cx="118.708" cy="555.335" rx="2.83227" ry="3.29908" fill="#FFEFE6"/>
<ellipse cx="5.41741" cy="566.332" rx="2.83227" ry="3.29908" fill="#FFEFE6"/>
<ellipse cx="14.8583" cy="566.332" rx="2.83227" ry="3.29908" fill="#FFEFE6"/>
<ellipse cx="24.2993" cy="566.332" rx="2.83227" ry="3.29908" fill="#FFEFE6"/>
<ellipse cx="33.7402" cy="566.332" rx="2.83227" ry="3.29908" fill="#FFEFE6"/>
<ellipse cx="43.181" cy="566.332" rx="2.83227" ry="3.29908" fill="#FFEFE6"/>
<ellipse cx="52.6219" cy="566.332" rx="2.83227" ry="3.29908" fill="#FFEFE6"/>
<ellipse cx="62.0629" cy="566.332" rx="2.83227" ry="3.29908" fill="#FFEFE6"/>
<ellipse cx="71.5038" cy="566.332" rx="2.83227" ry="3.29908" fill="#FFEFE6"/>
<ellipse cx="80.9447" cy="566.332" rx="2.83227" ry="3.29908" fill="#FFEFE6"/>
<ellipse cx="90.3856" cy="566.332" rx="2.83227" ry="3.29908" fill="#FFEFE6"/>
<ellipse cx="99.8265" cy="566.332" rx="2.83227" ry="3.29908" fill="#FFEFE6"/>
<ellipse cx="109.267" cy="566.332" rx="2.83227" ry="3.29908" fill="#FFEFE6"/>
<ellipse cx="118.708" cy="566.332" rx="2.83227" ry="3.29908" fill="#FFEFE6"/>
</g>
<g opacity="0.91" filter="url(#filter1_d)">
<path d="M97.078 470.656C-36.976 333.852 -86.1636 406.017 -91.4308 414.873C-91.7702 415.444 -91.9111 416.072 -91.9058 416.736L-91.5801 457.536C-90.3903 606.634 72.7816 746.654 137.185 612.179C141.04 604.13 144.371 595.504 147.088 586.258C169.085 511.42 108.058 481.862 97.078 470.656Z" fill="#FEBD9D"/>
</g>
<defs>
<filter id="filter0_d" x="-116.704" y="352.009" width="356.541" height="391.241" filterUnits="userSpaceOnUse" color-interpolation-filters="sRGB">
<feFlood flood-opacity="0" result="BackgroundImageFix"/>
<feColorMatrix in="SourceAlpha" type="matrix" values="0 0 0 0 0 0 0 0 0 0 0 0 0 0 0 0 0 0 127 0" result="hardAlpha"/>
<feOffset dx="20.4354" dy="20.4354"/>
<feGaussianBlur stdDeviation="28.2009"/>
<feColorMatrix type="matrix" values="0 0 0 0 0 0 0 0 0 0 0 0 0 0 0 0 0 0 0.04 0"/>
<feBlend mode="normal" in2="BackgroundImageFix" result="effect1_dropShadow"/>
<feBlend mode="normal" in="SourceGraphic" in2="effect1_dropShadow" result="shape"/>
</filter>
<filter id="filter1_d" x="-127.872" y="352.009" width="356.541" height="391.241" filterUnits="userSpaceOnUse" color-interpolation-filters="sRGB">
<feFlood flood-opacity="0" result="BackgroundImageFix"/>
<feColorMatrix in="SourceAlpha" type="matrix" values="0 0 0 0 0 0 0 0 0 0 0 0 0 0 0 0 0 0 127 0" result="hardAlpha"/>
<feOffset dx="20.4354" dy="20.4354"/>
<feGaussianBlur stdDeviation="28.2009"/>
<feColorMatrix type="matrix" values="0 0 0 0 0 0 0 0 0 0 0 0 0 0 0 0 0 0 0.04 0"/>
<feBlend mode="normal" in2="BackgroundImageFix" result="effect1_dropShadow"/>
<feBlend mode="normal" in="SourceGraphic" in2="effect1_dropShadow" result="shape"/>
</filter>
</defs>
</svg>
