<svg width="343" height="494" viewBox="0 0 343 494" fill="none" xmlns="http://www.w3.org/2000/svg">
<path fill-rule="evenodd" clip-rule="evenodd" d="M343 330.843V329.783C340.572 330.618 338.174 331.537 335.81 332.54C333.11 333.69 330.31 336.47 327.03 340.94C324.873 343.934 322.822 347.002 320.88 350.14C315.13 359.21 313.3 361.88 310.64 364.65C309.194 366.149 307.658 367.559 306.04 368.87C304.812 369.871 301.993 371.911 299.393 373.793C297.059 375.481 294.902 377.042 294.23 377.61C292.754 378.748 291.509 380.156 290.56 381.76C289.32 384.06 288.66 386.33 287.78 390.63C285.61 401.24 284.26 405.44 279.58 412.73C275.51 419.06 272.78 422.61 269.75 425.72C269.28 426.2 268.8 426.68 268.25 427.2L264.5 430.76C262.83 432.36 261.32 433.88 259.64 435.66C255.066 440.457 251.679 446.258 249.75 452.6C247.25 460.73 247.03 468.07 247.99 479.82C248.46 485.64 248.5 486.18 248.5 488C248.5 490.13 248.505 492.117 248.517 494H249.521C249.507 492.053 249.5 490.053 249.5 488C249.5 486.14 249.46 485.6 248.98 479.74C248.04 468.11 248.26 460.87 250.71 452.89C252.59 446.695 255.895 441.027 260.36 436.34C262.03 434.58 263.54 433.07 265.19 431.49C265.361 431.327 265.669 431.035 266.04 430.684C267.038 429.739 268.488 428.365 268.94 427.92C269.454 427.428 269.961 426.928 270.46 426.42C273.55 423.26 276.32 419.66 280.42 413.27C285.19 405.85 286.57 401.56 288.76 390.83C289.62 386.62 290.26 384.43 291.44 382.23C292.12 380.98 293.23 379.75 294.87 378.37C295.508 377.839 297.57 376.346 299.839 374.704C302.478 372.794 305.395 370.683 306.67 369.65C308.38 368.25 309.93 366.84 311.37 365.35C314.09 362.5 315.93 359.81 321.73 350.68C323.656 347.56 325.69 344.508 327.83 341.53C331.03 337.2 333.73 334.52 336.2 333.46C338.408 332.514 340.639 331.659 343 330.843ZM262.974 494H261.96C261.836 489.887 262.01 485.988 262.49 481.94C263.19 476.14 263.26 472.26 263.04 466.64C262.86 462.19 262.87 460.96 263.23 459.01C264.01 454.71 266.67 450.48 273.62 442.67C282.69 432.47 285.88 427.26 293.42 412.52C294.77 409.88 295.75 408.05 296.8 406.22C297.7 404.64 298.62 403.16 299.57 401.72C302.71 397.02 306.6 393.3 316.41 384.91C327.63 375.31 331.91 371.05 334.54 365.78C335.24 364.38 335.84 362.98 336.47 361.38C336.981 360.035 337.477 358.685 337.96 357.33C339.348 353.528 340.846 350.597 343 348.209V349.721C341.366 351.68 340.264 353.978 338.91 357.68L337.41 361.75C336.828 363.27 336.174 364.762 335.45 366.22C332.73 371.67 328.41 375.97 317.07 385.67C307.34 393.99 303.47 397.69 300.42 402.27C299.457 403.722 298.543 405.206 297.68 406.72C296.63 408.53 295.67 410.35 294.33 412.97C286.75 427.78 283.51 433.05 274.37 443.33C267.54 451.03 264.97 455.11 264.22 459.19C263.88 461.04 263.88 462.23 264.05 466.59C264.27 472.27 264.19 476.19 263.5 482.06C263.024 486.061 262.851 489.92 262.974 494ZM276.034 494H275.03C274.44 484.193 274.44 481.083 275.33 477.59C276.54 472.85 279.54 470.49 285 470.49H311C315.08 470.49 316.19 472.34 316.93 477.6C317.03 478.39 317.06 478.57 317.12 478.92C317.96 484.27 319.92 486.5 326 486.5C329.64 486.5 331.54 486.9 332.43 487.87C333.149 488.655 333.188 489.243 332.852 491.409C332.49 491.614 332.122 491.808 331.747 491.991C331.763 491.875 331.781 491.758 331.8 491.64C332.14 489.52 332.14 489.04 331.7 488.54C331.06 487.85 329.36 487.5 326 487.5C319.37 487.5 317.04 484.87 316.13 479.08L315.93 477.74C315.26 472.92 314.4 471.5 311 471.5H285C280 471.5 277.4 473.54 276.3 477.84C275.438 481.202 275.449 484.285 276.034 494ZM293.5 494H292.5C292.5 489.06 293.96 486.24 296.71 485.58C299.09 485 302.27 486.12 305.91 488.58C308.053 490.039 310.27 491.917 312.376 494H310.934C309.094 492.245 307.187 490.665 305.34 489.41C301.92 487.09 298.98 486.06 296.94 486.55C294.74 487.08 293.5 489.47 293.5 494ZM343 405.216C340.151 408.064 336.078 410.245 329.61 412.88L325.69 414.45C324.07 415.1 322.83 415.62 321.59 416.15C318.42 417.51 315.69 418.83 313.09 420.33C310.417 421.854 307.872 423.593 305.48 425.53C289.44 438.56 287 442.5 287 455.3C287 461.6 290.28 464.04 296.31 463.2C300.48 462.62 301.96 462.07 315.74 456.53L316.48 456.24C319.81 454.9 321.27 454.98 321.71 455.84C322.14 456.71 322.06 457.98 321.46 461.64L321.22 463.2C320.37 469.18 321.34 472.45 325.94 473.29C330.09 474.04 332.73 472.97 334.94 470.47C335.019 470.375 335.177 470.182 335.364 469.952C335.792 469.428 336.376 468.711 336.55 468.53C337.36 467.7 338 467.94 340.32 470.92C342.04 473.126 342.673 475.038 342.609 477.955C342.865 476.676 343 475.354 343 474V471.285C342.686 470.76 342.32 470.232 341.9 469.69C338.94 465.89 337.02 465.18 335.12 467.14C334.818 467.442 333.883 468.606 333.539 469.022C333.496 469.074 333.462 469.115 333.44 469.14C331.67 471.15 329.72 471.94 326.29 471.32C323.14 470.75 322.48 468.52 323.2 463.48L323.44 461.95C324.12 457.71 324.21 456.38 323.5 454.95C322.44 452.83 319.91 452.71 315.74 454.37L314.99 454.67C301.47 460.12 299.95 460.67 296.04 461.22C291.141 461.9 289.001 460.301 289 455.303C289.001 443.209 291.123 439.778 306.74 427.08C309.05 425.21 311.508 423.531 314.09 422.06C316.775 420.539 319.546 419.177 322.39 417.98C323.6 417.46 324.84 416.95 326.44 416.31L330.36 414.73C336.086 412.401 340.057 410.379 343 407.929V405.216ZM343 414.975C341.241 415.794 339.161 416.422 336.54 417.04C330.32 418.49 328.12 419.17 324.38 421.14C319.22 423.86 314.1 428.14 308.62 434.67C302.79 441.61 301.48 445.45 304.39 446.88C306.39 447.87 309.14 447.6 317.11 446.15L317.8 446.03C322.84 445.11 325.5 444.78 327.74 444.91C330.46 445.08 331.66 445.99 331.5 447.95C330.99 454.06 331.75 457.28 334.12 458.68C335.905 459.726 338.246 459.737 343 458.881V457.865C338.387 458.707 336.163 458.714 334.63 457.81C332.7 456.67 332.02 453.79 332.5 448.03C332.72 445.4 331.01 444.12 327.8 443.92C325.45 443.77 322.75 444.11 317.63 445.04L316.93 445.17C309.31 446.55 306.53 446.82 304.83 445.98C302.85 445.01 303.95 441.78 309.38 435.32C314.79 428.88 319.8 424.68 324.84 422.02C328.49 420.1 330.63 419.45 336.76 418C339.239 417.417 341.264 416.819 343 416.063V414.975ZM343 423.127C338.809 425.306 336.802 426.588 335.2 428.19C332.41 430.99 332.75 433.76 336.72 436.41C340.763 439.109 342.074 441.081 343 444.877V441.658C341.977 439.349 340.374 437.637 337.28 435.57C333.82 433.27 333.57 431.24 335.9 428.9C337.358 427.45 339.228 426.229 343 424.249V423.127ZM235.345 494C234.978 491.539 234.52 488.735 233.96 485.44L233.64 483.59C231.54 471.12 230.9 464.39 231.68 457.39C232.68 448.39 236.29 441.19 243.32 435.39C265.57 417 273.5 404.79 273.5 390C273.5 387.33 273.2 385.05 272.5 381.63C271.55 376.96 271.42 376.09 271.55 374.33C271.72 372.03 272.67 370.15 274.77 368.29C277.32 366.04 281.6 363.83 288.17 361.47C298.13 357.88 304.05 352.08 312.95 339.54L314.72 337.04C323.86 324.13 329.38 318.92 339.12 316.48C340.476 316.142 341.768 315.815 343 315.5V314.468C341.697 314.802 340.325 315.149 338.88 315.51C333.32 316.91 328.65 319.61 324.34 323.68C321.01 326.83 318.39 330.13 313.91 336.46L312.13 338.96C303.35 351.35 297.55 357.03 287.83 360.53C281.16 362.94 276.78 365.19 274.11 367.54C271.82 369.56 270.75 371.7 270.55 374.26C270.42 376.15 270.55 377.04 271.52 381.83C272.2 385.19 272.5 387.4 272.5 390C272.5 404.43 264.73 416.41 242.69 434.61C235.44 440.6 231.72 448.03 230.69 457.28C229.9 464.4 230.54 471.2 232.66 483.75L232.97 485.61C233.516 488.833 233.965 491.584 234.327 494H235.345ZM226.045 494C225.701 492.449 225.359 490.756 225.03 488.94C223.05 477.88 222.41 466.45 223.9 455.79C224.662 449.78 226.349 443.925 228.9 438.43C232.028 431.92 236.162 425.944 241.15 420.72C244.46 417.21 246.57 415.33 252.82 410.09C257.5 406.16 259.43 404.29 260.76 402.09C261.58 400.73 262 399.38 262 398C262 397.634 262 397.343 261.994 397.051C261.971 395.867 261.852 394.684 261.25 388.57C260.88 384.92 260.67 382.33 260.57 379.73C260.11 368.46 262.01 361.72 267.32 359.95C283.63 354.51 294.03 347.43 301.87 333.49C311.04 317.2 326.78 303 336 303C338.497 303 340.815 302.921 343 302.74V300.733C340.825 300.919 338.51 301 336 301C325.85 301 309.6 315.65 300.13 332.51C292.57 345.95 282.58 352.75 266.68 358.05C260.19 360.21 258.07 367.71 258.57 379.81C258.68 382.47 258.89 385.07 259.25 388.77C259.858 394.839 259.973 395.984 259.995 397.131C260 397.399 260 397.668 260 398C260 399 259.69 399.99 259.05 401.06C257.88 403 256.03 404.78 251.53 408.56C245.23 413.85 243.08 415.75 239.7 419.35C234.57 424.724 230.318 430.873 227.1 437.57C224.458 443.251 222.711 449.305 221.92 455.52C220.4 466.4 221.05 478.04 223.06 489.3C223.359 490.97 223.673 492.544 223.995 494H226.045ZM214.977 494C214.908 492.9 214.829 491.668 214.74 490.28C213.97 478.28 213.75 470.71 214.19 462.11C214.77 450.69 216.57 440.18 219.95 430.21C221.22 426.457 222.723 422.786 224.45 419.22C227.87 412.16 231.2 406.98 234.73 402.84C236.076 401.268 237.504 399.769 239.01 398.35C239.161 398.206 239.594 397.803 240.117 397.315C241.045 396.45 242.259 395.318 242.7 394.89C248.63 389.07 250.5 382.9 250.5 365C250.5 354.89 251.56 348.73 253.79 344.95C255.63 341.83 257.99 340.34 263.07 338.58C266.74 337.33 267.58 337.03 268.44 336.71C270.67 335.88 272.67 335.01 274.67 333.96C279.7 331.31 284.49 327.62 289.37 322.34C313.793 295.883 325.293 288.056 343 287.529V286.528C324.944 287.054 313.234 295.001 288.63 321.66C283.83 326.86 279.14 330.48 274.19 333.08C272.217 334.111 270.18 335.013 268.09 335.78C267.24 336.09 266.41 336.39 265.32 336.76C252.4 341.23 249.5 346.16 249.5 365C249.5 382.66 247.71 388.58 241.99 394.18C241.32 394.83 238.75 397.23 238.32 397.63C236.79 399.071 235.338 400.594 233.97 402.19C230.38 406.4 227.01 411.65 223.55 418.79C221.8 422.39 220.3 426.09 219 429.89C215.59 439.95 213.77 450.55 213.19 462.05C212.74 470.71 212.97 478.31 213.74 490.35C213.827 491.709 213.905 492.918 213.974 494H214.977ZM204.422 494C204.662 488.565 204.669 483.541 204.56 473.75L204.546 472.142C204.515 468.771 204.5 467.083 204.5 465C204.5 439.9 213.51 409.97 227.38 393.32C233.08 386.49 236.44 380.09 237.97 373.89C239.09 369.35 239.19 365.81 238.74 360.63C238.51 357.98 238.5 357.82 238.5 357C238.5 351.46 238.82 347.58 240.08 343.18C242.27 335.54 246.72 330.34 254.12 328.49C267.95 325.03 287.32 310.73 299.37 297.33C308.053 287.684 326.99 277.899 343 275.217V274.204C326.722 276.888 307.49 286.819 298.63 296.67C286.7 309.92 267.48 324.11 253.88 327.51C246.09 329.46 241.4 334.95 239.12 342.9C237.82 347.43 237.5 351.38 237.5 357C237.5 357.86 237.51 358.02 237.74 360.72C238.18 365.8 238.09 369.25 237 373.65C235.5 379.69 232.22 385.96 226.62 392.68C212.57 409.53 203.5 439.68 203.5 465C203.5 467.093 203.515 468.795 203.546 472.194L203.56 473.75C203.669 483.567 203.654 488.567 203.418 494H204.422ZM197.163 494C197.803 486.779 198 478.952 198 469C198 462.31 195.67 457.25 191.87 457.25C187.72 457.25 183.3 463.42 179.06 475.67C176.609 482.747 173.982 488.844 171.108 494H173.384C176.111 488.942 178.606 483.059 180.93 476.33C184.9 464.86 188.92 459.25 191.86 459.25C194.13 459.25 195.99 463.29 195.99 469C195.99 478.975 195.792 486.793 195.144 494H197.163ZM184.875 494C184.649 493.851 184.359 493.83 184 493.96C183.968 493.972 183.936 493.985 183.903 494H184.875ZM66.7046 494H70.3643C68.5276 492.785 67.0019 491.795 66.3 491.4C61.53 488.72 58 488.27 54.53 490.47C53.77 490.95 53.03 491.56 52.29 492.29C51.7018 492.873 51.1008 493.444 50.4874 494H53.4051C53.5037 493.904 53.6021 493.807 53.7 493.71C54.34 493.07 54.97 492.56 55.6 492.16C58.32 490.44 61.12 490.79 65.32 493.15C65.626 493.321 66.1036 493.616 66.7046 494ZM38.9603 494C39.7545 493.152 40.6043 492.247 41.3555 491.447C42.3721 490.365 43.2079 489.474 43.48 489.18C45.2695 487.337 46.9206 485.365 48.42 483.28L48.4721 483.199C48.7358 482.791 49.9196 480.957 50.25 480.51C53.02 476.68 56.39 477.61 70.72 487.41C74.8438 490.232 77.9504 492.359 80.3607 494H82.1356C79.581 492.266 76.1379 489.911 71.28 486.59C56.52 476.48 52.69 475.42 49.44 479.92C49.05 480.46 47.58 482.72 47.58 482.72C46.1098 484.762 44.4922 486.694 42.74 488.5C42.4926 488.768 41.7644 489.545 40.8563 490.514C39.8538 491.584 38.6318 492.888 37.5954 494H38.9603ZM23.7897 494C26.5814 489.029 29.839 484.571 33.33 481.37C34.77 480.04 36.02 478.61 37.14 477.04C38.2584 475.444 39.2482 473.762 40.1 472.01C40.2434 471.719 40.5504 471.077 40.89 470.368C41.4026 469.296 41.9894 468.069 42.2 467.66C45.09 461.99 48.02 461.78 57.7 468.41L64.1 472.8C66.3295 474.331 68.5662 475.851 70.81 477.36C75.86 480.76 80.21 483.57 84.36 486.08C89.6361 489.276 94.4886 491.924 98.9545 494H101.394C96.4236 491.83 90.9348 488.893 84.88 485.23C80.74 482.73 76.4 479.92 71.37 476.53C69.34 475.17 67.29 473.77 64.67 471.97C64.5498 471.89 63.8461 471.407 62.9351 470.781C61.3445 469.689 59.122 468.162 58.27 467.59C48.14 460.66 44.52 460.91 41.3 467.2C41.1263 467.547 40.6965 468.446 40.2636 469.352C39.8241 470.271 39.3813 471.197 39.2 471.56C38.3714 473.267 37.4083 474.906 36.32 476.46C35.248 477.976 34.0178 479.374 32.65 480.63C28.9673 484.009 25.5462 488.742 22.6442 494H23.7897ZM11.8718 492.279C12.0571 491.921 12.2463 491.582 12.44 491.26C14.12 488.46 16.07 485.82 19.99 480.87C28.82 469.73 31.51 465.5 31.51 461L31.49 459.3C31.4589 458.06 31.4656 456.82 31.51 455.58C31.71 450.89 32.83 448.09 35.51 447.07C39.05 445.73 45.25 447.58 54.75 453.43C64.31 459.31 72.29 464.12 80.67 469.09C81.0822 469.335 82.6477 470.259 84.7059 471.473C89.1891 474.118 96.0098 478.142 98.34 479.54C100.482 480.823 102.615 482.12 104.74 483.43C119.01 492.2 144.77 488.67 152.44 475.25C156.07 468.91 157.03 466.63 160.28 457.78C160.73 456.56 161.09 455.64 161.46 454.74C162.525 452.124 163.855 449.624 165.43 447.28C174.85 433.14 180.51 420.88 180.51 410C180.51 406.49 181.25 403.57 183.82 395.45C184.34 393.81 184.66 392.78 184.98 391.71C188.73 379.1 188.1 371.79 180.28 366.58C177.167 364.477 173.606 363.132 169.88 362.65C162.43 361.69 154.98 363.83 145.39 368.63C144.452 369.099 142.237 370.248 140.414 371.194C139.206 371.821 138.169 372.359 137.79 372.55C136.55 373.17 135.25 373.9 133.59 374.9L129.19 377.55C117.77 384.35 109.24 386.54 97.13 383.51C92.8555 382.491 88.5461 381.624 84.21 380.91C70.85 378.51 65.44 377.15 60.97 374.52C55.22 371.15 54.14 366.42 58.44 359.26C62.4179 352.642 67.2122 346.551 72.71 341.13C75.17 338.67 77.7 336.35 80.97 333.51C80.9 333.57 87.14 328.22 88.81 326.74C91.1122 324.725 93.3053 322.589 95.38 320.34C103.03 311.92 108.08 307.07 115.3 301.91C125.14 294.88 136.47 289.67 150.12 286.49C187.32 277.81 201.31 273.74 209.29 268.42C218.09 262.55 230.84 243.43 246.45 213.23C251.61 203.26 258.58 195.06 267.34 187.83C272.43 183.63 276.83 180.64 284.78 175.68C292.31 170.99 294.52 169.46 296.38 167.33C297.64 165.779 298.683 164.063 299.48 162.23C300.1 160.91 302.37 155.72 302.49 155.44C303.639 152.822 304.941 150.275 306.39 147.81C312.78 137.08 322.04 130.23 337.1 127.5C339.21 127.115 341.164 126.784 343 126.5V125.483C341.113 125.77 339.103 126.107 336.93 126.5C321.56 129.3 312.06 136.33 305.53 147.3C304.14 149.63 302.94 152.03 301.58 155.03C301.45 155.33 299.19 160.5 298.58 161.8C297.821 163.549 296.828 165.187 295.63 166.67C293.87 168.69 291.67 170.21 284.25 174.83C276.26 179.81 271.83 182.82 266.7 187.06C257.84 194.37 250.79 202.67 245.57 212.77C230.03 242.81 217.33 261.85 208.73 267.58C200.9 272.81 186.93 276.87 149.9 285.51C136.12 288.73 124.66 293.99 114.72 301.09C107.42 306.3 102.34 311.2 94.64 319.66C92.5874 321.884 90.4177 323.997 88.14 325.99C87.0439 326.961 83.9556 329.623 82.0038 331.305C80.9996 332.171 80.2962 332.777 80.32 332.76C77.4556 335.213 74.6804 337.768 72 340.42C66.4376 345.897 61.5862 352.052 57.56 358.74C52.98 366.37 54.21 371.72 60.44 375.39C65.07 378.1 70.52 379.46 83.77 381.85C90.63 383.09 93.55 383.65 96.87 384.49C109.28 387.59 118.06 385.33 129.68 378.41L134.08 375.75C135.43 374.931 136.811 374.164 138.22 373.45C138.576 373.268 139.502 372.787 140.604 372.214C142.471 371.244 144.845 370.01 145.82 369.52C155.24 364.81 162.53 362.71 169.73 363.64C173.306 364.104 176.724 365.398 179.71 367.42C187.04 372.3 187.64 379.19 184 391.42C183.68 392.49 183.37 393.51 182.85 395.15C180.24 403.38 179.49 406.34 179.49 410C179.49 420.62 173.9 432.74 164.57 446.72C162.959 449.121 161.598 451.681 160.51 454.36C160.096 455.375 159.703 456.399 159.33 457.43C156.09 466.23 155.15 468.47 151.55 474.75C144.19 487.63 119.07 491.08 105.25 482.58C103.117 481.269 100.977 479.969 98.83 478.68C96.4982 477.281 89.67 473.253 85.187 470.608C83.1332 469.396 81.5716 468.475 81.16 468.23C72.78 463.27 64.81 458.45 55.25 452.57C45.52 446.58 39.05 444.64 35.13 446.14C31.96 447.34 30.7 450.49 30.49 455.54C30.45 456.61 30.45 457.53 30.47 459.31L30.49 461C30.49 465.16 27.82 469.35 19.61 479.71C15.24 485.24 13.26 487.9 11.56 490.74C11.351 491.088 11.1476 491.454 10.9488 491.839C11.2521 491.994 11.5598 492.14 11.8718 492.279ZM1.64557 481.957C3.28442 477.566 5.5238 474.303 8.63 471.78C13.7 467.66 16.47 462.12 18 454.62C18.6012 451.533 19.0551 448.42 19.36 445.29C20.6 435.02 22 432 27 432C40.82 432 64.62 440.96 79.41 451.81C88.23 458.27 100.99 465.33 111.66 469.19C125.58 474.22 135.42 473.89 138.91 466.42C140.61 462.77 140.83 462.29 141.57 460.62C144.58 453.77 146.39 448.07 146.98 442.52C147.22 440.21 147.23 438 146.99 435.88C146.62 432.61 145.31 430.47 142.38 427.38C142.16 427.17 141.29 426.25 141.06 426.01C140.1 425 139.42 424.23 138.8 423.4C137.922 422.193 137.139 420.919 136.46 419.59L135.35 417.46C133.57 414.08 132.37 412.37 130.55 411.17C124.92 407.4 115.18 405.37 101.1 404C99.24 403.82 97.41 403.68 94.17 403.45C92.723 403.349 91.2762 403.242 89.83 403.13C80.48 402.42 75.05 401.61 71.38 400.08C58 394.5 38 374.5 38 365C38 360.16 39.56 356.39 43.03 352.13C44.2535 350.625 48.4196 346.304 51.7082 342.893C53.5531 340.98 55.1218 339.353 55.74 338.67C60.13 333.84 65.67 329.36 73.07 324.32C74.2634 323.509 77.2004 321.597 80.3671 319.537C84.4977 316.849 89.019 313.907 90.57 312.82C92.9226 311.123 95.1302 309.233 97.17 307.17C98.4114 305.953 102.155 302.086 103.673 300.518C104.05 300.128 104.29 299.88 104.32 299.85C111.32 292.73 116.64 288.62 123.37 285.93C126.64 284.62 131.37 283.19 140.61 280.61C144.548 279.533 148.481 278.439 152.41 277.33C156.657 276.14 160.89 274.903 165.11 273.62C185.81 267.3 199.6 261.37 206.68 254.73C215.72 246.26 218.9 240.34 222.95 227.87C224.93 221.75 225.98 219.02 227.88 215.47C237.22 198.13 256.11 176.8 270.38 170.92C285.2 164.82 291 158.27 291 151C291 148.68 293.57 143.5 297.42 138.48C302 132.52 307.64 127.57 313.42 124.9C321.188 121.317 332.374 118.292 343 116.561V114.536C332.103 116.287 320.595 119.39 312.58 123.09C306.48 125.91 300.59 131.07 295.83 137.27C291.73 142.6 289 148.11 289 151C289 157.34 283.77 163.25 269.62 169.08C254.83 175.16 235.66 196.82 226.12 214.53C224.14 218.21 223.07 221.03 221.05 227.25C217.1 239.43 214.06 245.07 205.32 253.27C198.53 259.63 184.93 265.47 164.53 271.71C160.32 272.99 156.097 274.223 151.86 275.41C147.933 276.501 144.006 277.594 140.08 278.69C130.76 281.28 125.99 282.73 122.63 284.07C115.59 286.89 110.07 291.15 102.89 298.45C102.73 298.62 97.3 304.25 95.77 305.75C93.81 307.732 91.6895 309.548 89.43 311.18C87.9107 312.24 83.4778 315.125 79.3823 317.791C76.1727 319.881 73.1702 321.835 71.94 322.67C64.42 327.79 58.78 332.36 54.26 337.33C53.698 337.946 52.29 339.404 50.5936 341.161C47.2491 344.626 42.7837 349.251 41.47 350.87C37.74 355.47 36 359.66 36 365C36 375.5 56.57 396.07 70.61 401.92C74.55 403.56 80.1 404.39 89.67 405.12L91.85 405.29C94.8671 405.477 97.8808 405.713 100.89 406C114.64 407.33 124.18 409.33 129.44 412.83C130.88 413.79 131.94 415.29 133.56 418.39L134.69 420.53C135.415 421.95 136.251 423.311 137.19 424.6C137.937 425.578 138.741 426.509 139.6 427.39L140.92 428.76C143.58 431.56 144.68 433.36 145 436.11C145.22 438.08 145.21 440.14 144.98 442.31C144.42 447.61 142.66 453.14 139.73 459.81C139.008 461.453 138.785 461.93 137.133 465.467L137.08 465.58C134.22 471.72 125.36 472.02 112.33 467.31C101.85 463.52 89.25 456.55 80.59 450.2C65.47 439.12 41.27 430 26.99 430C23.42 430 21.05 431.6 19.6 434.69C18.52 436.99 18.02 439.55 17.36 445.05C16.73 450.35 16.54 451.7 16.03 454.22C14.58 461.3 12.01 466.45 7.35999 470.22C4.48285 472.557 2.30774 475.421 0.646606 479.064C0.906738 480.061 1.24188 481.027 1.64557 481.957ZM0 466.658C4.17639 462.355 6.49384 459.32 8.44 455.33C11.15 449.78 12.49 443.04 12.49 433.99C12.49 427.35 13.58 422.76 15.71 419.46C17.33 416.93 19.1 415.49 23.02 413.04C26 411.17 27.18 410.34 28.32 409.37C33.06 405.3 35.12 402.96 36.34 399.53C37.85 395.26 37.33 390 34.45 382.8C33.2859 379.992 31.9397 377.263 30.42 374.63L29.48 372.93C28.5449 371.313 27.671 369.662 26.86 367.98C21.9 357.65 23.2 349.93 34.33 339.35C42.6067 331.461 51.5351 324.286 61.02 317.9C62.9914 316.564 67.1959 313.866 71.2134 311.288C75.2253 308.714 79.0508 306.259 80.28 305.4C83.0009 303.413 85.6177 301.286 88.12 299.03C88.12 299.03 95.36 292.65 97.6 290.73C101.712 287.118 106.037 283.756 110.55 280.66C115.18 277.57 119.34 275.48 123.11 274.47C130.402 272.575 137.67 270.585 144.91 268.5C157.51 264.84 166.97 261.56 173.21 258.44C175.569 257.317 178.021 256.404 180.54 255.71C189.31 253.01 192.76 251.54 197.84 247.44C204.74 241.87 211.13 232.95 217.44 219.19C233.36 184.56 236.39 180.07 249.29 170.39C252.36 168.09 255.53 166.37 260.54 164.1L262.85 163.06C268.83 160.39 271.66 158.92 274.78 156.66C278.899 153.703 282.218 149.768 284.44 145.21C286.38 141.33 287.01 138.73 287.91 132.65C288.66 127.61 289.34 125.37 291.24 122.85C293.68 119.63 298 116.87 305.17 114.17C309.089 112.739 313.078 111.504 317.12 110.47C327.696 107.689 335.151 106.27 343 105.496V104.505C335.065 105.281 327.541 106.707 316.86 109.52C312.17 110.75 308.18 111.99 304.81 113.25C297.48 115.99 293.02 118.86 290.45 122.26C288.4 124.95 287.7 127.32 286.92 132.51C286.03 138.49 285.43 141.01 283.55 144.78C279.32 153.23 274.38 156.81 262.45 162.16L260.12 163.2C255.06 165.5 251.83 167.24 248.69 169.6C235.62 179.4 232.51 184.02 216.54 218.79C210.28 232.41 203.99 241.2 197.21 246.66C192.26 250.66 188.9 252.1 180.24 254.76C177.673 255.469 175.173 256.403 172.77 257.55C166.59 260.65 157.18 263.91 144.63 267.55C138.46 269.34 135.64 270.11 122.86 273.52C118.96 274.56 114.71 276.69 109.99 279.84C106.03 282.49 101.91 285.73 96.94 289.99C94.7 291.9 87.45 298.29 87.47 298.29C84.03 301.29 81.69 303.19 79.7 304.59C78.5098 305.419 74.8447 307.774 70.9428 310.281C66.8461 312.913 62.4883 315.712 60.46 317.09C50.9326 323.506 41.9641 330.715 33.65 338.64C22.2 349.52 20.81 357.71 25.97 368.42C26.7872 370.119 27.6678 371.787 28.61 373.42L29.54 375.12C31.0443 377.72 32.3771 380.416 33.53 383.19C36.32 390.17 36.82 395.19 35.39 399.21C34.25 402.42 32.28 404.66 27.67 408.62C26.4424 409.647 25.1387 410.58 23.77 411.41C18.46 414.72 16.6 416.23 14.86 418.93C12.63 422.41 11.49 427.18 11.49 434C11.49 442.91 10.18 449.5 7.53998 454.91C5.76166 458.55 3.6557 461.382 0 465.232V466.658ZM0 451.06C2.54144 445.6 3.48999 439.571 3.48999 429C3.48999 421.38 5.92999 415.18 11.45 406.08L14.29 401.45C15.1815 399.993 16.022 398.505 16.81 396.99C18.49 393.72 19.39 390.97 19.54 388.31C19.76 384.23 18.14 380.45 14.34 376.65C8.83002 371.13 4.63 370.76 1.63 374.91C1.03241 375.734 0.496033 376.688 0 377.811V380.628C0.721863 378.437 1.50739 376.785 2.44 375.5C5.03998 371.92 8.51001 372.23 13.64 377.35C17.24 380.96 18.74 384.47 18.54 388.25C18.4 390.75 17.54 393.38 15.92 396.53C15.1413 398.025 14.3108 399.493 13.43 400.93L10.59 405.56C4.98999 414.8 2.48999 421.15 2.48999 429C2.48999 438.049 1.79871 443.676 0 448.476V451.06ZM0 347.803C0.30188 347.264 0.614807 346.724 0.940002 346.18C2.82159 343.046 4.97668 340.084 7.38 337.33C13.47 330.29 20.48 324.75 32 317.25C33.194 316.462 36.536 314.318 39.5055 312.413C41.5849 311.079 43.4816 309.862 44.33 309.31C49.3 306.07 53.35 303.3 57.3 300.4C62.7 296.42 67.53 292.28 76.11 284.52L77.81 282.98C95.48 266.98 103.64 260.68 114.19 256.46C118.14 254.88 122.9 253.41 129.82 251.54C130.02 251.49 144.69 247.64 149.06 246.41C169.12 240.75 181.67 234.99 189.37 226.33C195.22 219.76 199.42 212.16 206.72 196.46L208.8 191.97C217.62 173 223.14 163.7 231.34 156.37C235.88 152.25 240.985 148.799 246.5 146.12L250.53 144.16C256.99 140.97 260.31 138.18 263.91 131.98C265.685 128.838 267.21 125.562 268.47 122.18C272.94 110.55 279.7 102.55 288 97.68C294.1 94.11 300.6 92.5 306 92.5C313.03 92.5 318.68 92.38 326.24 91.93C331.844 91.6245 337.433 91.1277 343 90.4407V89.428C337.414 90.1213 331.804 90.6224 326.18 90.93C318.66 91.38 313.02 91.5 306.01 91.5C300.44 91.5 293.76 93.16 287.51 96.82C279.01 101.8 272.1 109.98 267.54 121.82C266.303 125.156 264.805 128.39 263.06 131.49C259.57 137.49 256.4 140.16 250.1 143.26L246.06 145.23C240.465 147.949 235.287 151.45 230.68 155.63C222.35 163.07 216.78 172.46 207.91 191.53L205.82 196.03C198.57 211.65 194.4 219.19 188.64 225.67C181.11 234.14 168.69 239.84 148.79 245.45C145.27 246.445 134.996 249.15 131.095 250.178C130.176 250.42 129.61 250.569 129.57 250.58C122.62 252.45 117.82 253.94 113.82 255.54C103.13 259.81 94.91 266.15 77.15 282.24L75.45 283.78C66.9 291.52 62.08 295.65 56.71 299.6C52.79 302.49 48.75 305.25 43.79 308.47C42.6204 309.234 39.4395 311.278 36.5421 313.14C34.3609 314.541 32.3405 315.839 31.46 316.41C19.87 323.97 12.8 329.55 6.63 336.67C4.09003 339.61 1.92999 342.58 0.0899658 345.66C0.0598755 345.711 0.0299072 345.761 0 345.811V347.803ZM0 159.584C0.799072 159.208 1.64819 158.845 2.64001 158.41L7.01001 156.53C13.0987 153.904 19.0229 150.912 24.75 147.57C33.7975 142.284 43.0987 137.445 52.62 133.07C56.2039 131.414 69.4889 125.474 72.9712 123.916C73.5892 123.64 73.8985 123.502 73.79 123.55C92.96 114.93 101.89 116.62 123.29 131.6C131.2 137.14 136.53 144.85 139.74 154.26C142.76 163.09 143.5 170.77 143.5 182.01C143.5 190.33 142.84 194.96 139.82 200.98C135.64 209.34 127.52 217.12 114.24 224.45C89.79 237.94 75.41 252 61.41 272.29C53.1684 284.237 18.7047 312.396 0 324.179V322.999C18.7083 311.087 52.5084 283.427 60.59 271.73C74.67 251.31 89.16 237.14 113.76 223.57C126.88 216.34 134.85 208.7 138.93 200.54C141.85 194.68 142.5 190.19 142.5 182.01C142.5 170.88 141.76 163.28 138.8 154.58C135.65 145.36 130.44 137.83 122.71 132.42C101.58 117.62 93.01 116 74.21 124.47C74.91 124.15 57.25 132.03 53.04 133.97L52.3565 134.292C50.9085 134.973 49.5293 135.621 48.18 136.27C40.3751 140.015 32.7254 144.075 25.25 148.44C19.4872 151.801 13.5264 154.81 7.40002 157.45L3.02997 159.33C1.98999 159.78 1.10999 160.17 0.27002 160.56C0.179932 160.601 0.0899048 160.642 0 160.683V159.584ZM0 151.953C13.6428 144.649 27.5523 137.853 41.7 131.58C43.696 130.687 47.9619 128.802 51.5742 127.205C54.3143 125.994 56.6783 124.949 57.39 124.63C61.0709 123.038 64.6902 121.306 68.24 119.44L70.19 118.37C72.532 117.062 74.9131 115.824 77.33 114.66C95.16 106.07 111.21 104.37 126.78 113.45C149.31 126.6 164.5 149.96 164.5 169C164.5 187.95 163.79 193.84 159.44 201.72C158.059 204.188 156.445 206.519 154.62 208.68C148.03 216.58 142.63 225.12 141.63 230.41C140.21 238 147.11 238.81 163.21 231.45C176.73 225.27 185.97 216.25 192.17 204.69C194.746 199.813 196.82 194.686 198.36 189.39C198.996 187.264 200.315 182.304 201.116 179.293C201.449 178.04 201.692 177.125 201.76 176.89C202.185 175.287 202.75 173.724 203.45 172.22C210.82 157.48 224.3 142.08 239.2 135.45C247.06 131.96 252.57 125.55 259.06 114.25C259.467 113.536 260.464 111.75 261.489 109.916C262.602 107.922 263.747 105.872 264.2 105.08C267.66 99.1 270.3 95.59 273.3 93.4C283.24 86.17 301.6 82.5 323 82.5C328.757 82.5 335.35 81.7845 343 80.4185V79.4024C335.33 80.7802 328.73 81.5 323 81.5C301.41 81.5 282.86 85.2 272.71 92.6C269.56 94.88 266.86 98.48 263.34 104.58C262.832 105.464 261.476 107.892 260.259 110.071C259.37 111.665 258.555 113.125 258.2 113.75C251.8 124.89 246.41 131.16 238.8 134.54C223.64 141.28 210.02 156.85 202.55 171.78C201.825 173.335 201.239 174.951 200.8 176.61C200.729 176.855 200.48 177.787 200.142 179.054C199.337 182.071 198.024 186.991 197.39 189.09C195.874 194.327 193.83 199.396 191.29 204.22C185.19 215.59 176.1 224.46 162.79 230.54C147.31 237.62 141.42 236.93 142.62 230.59C143.57 225.52 148.91 217.09 155.38 209.32C157.25 207.11 158.905 204.726 160.32 202.2C164.77 194.13 165.5 188.12 165.5 169C165.5 149.58 150.11 125.9 127.22 112.56C111.37 103.3 94.99 105.04 76.89 113.76C75.27 114.55 73.65 115.37 71.89 116.31L69.71 117.49L67.76 118.56C65.28 119.91 62.03 121.46 56.98 123.71C56.0279 124.145 52.0765 125.892 48.2442 127.585C45.475 128.809 42.7681 130.006 41.3 130.66C27.291 136.871 13.5151 143.595 0 150.816V151.953ZM0 114.972C1.25372 113.737 2.5968 112.454 4.02997 111.12C6.18439 109.119 8.36456 107.145 10.57 105.2C10.9769 104.841 12.1809 103.791 13.7632 102.411C17.8193 98.8738 24.3617 93.1684 26.34 91.37C29.47 88.52 35.02 82.16 34.5 82.67C37.08 80.1 39.8 79.5 50 79.5C57.86 79.5 62.73 76.89 65.63 71.55C67.92 67.32 68.84 62.49 69.94 51.59L70.21 48.86C70.32 47.77 70.4 46.9 70.5 46.05C71.46 36.99 82.23 35.23 102.46 38.19C105.14 38.59 107.9 39.05 111.46 39.69C126.92 42.41 127.51 42.49 131 42.49C136.81 42.49 143.96 41.48 168.46 37.49L170.73 37.12C190.76 33.88 201.16 32.5 208 32.5C218.1 32.5 231.84 29.29 244.22 23.33C255.982 17.6544 266.026 9.87637 273.607 0H272.347C264.919 9.45731 255.165 16.9359 243.78 22.42C231.54 28.32 217.95 31.5 208 31.5C201.09 31.5 190.67 32.88 170.57 36.14L168.3 36.5C143.9 40.47 136.73 41.5 131 41.5C127.6 41.5 126.97 41.4 111.64 38.7C108.07 38.07 105.3 37.61 102.6 37.21C93.25 35.84 86.18 35.47 80.74 36.35C73.98 37.45 70.07 40.53 69.51 45.95L69.21 48.76L68.95 51.49C67.86 62.24 66.95 67.01 64.75 71.08C62.04 76.07 57.5 78.5 50 78.5C39.5681 78.5 36.6301 79.1378 33.8146 81.9454C34.1209 81.6499 28.7109 87.8654 25.66 90.63C23.6959 92.4214 17.1613 98.1208 13.1057 101.658C11.5242 103.037 10.3196 104.088 9.90997 104.45C7.47003 106.6 5.33002 108.54 3.34998 110.39C2.17352 111.484 1.05707 112.545 0 113.573V114.972ZM0 101.054V102.356C2.54401 100.261 4.98969 98.2421 5.94 97.41C9.76001 94.07 12.44 91.24 14.42 88.27C18.5391 82.0913 18.5392 82.0913 19.6136 80.6806C19.6868 80.5844 19.7651 80.4817 19.85 80.37C23.55 75.47 27.1 72.7 33.65 69.9C36.7599 68.608 39.9302 67.4667 43.15 66.48C45.2786 65.8389 47.252 64.7656 48.9468 63.3271C50.6417 61.8887 52.0215 60.116 53 58.12C54.65 55 55.49 52.12 56.99 45.48C58.51 38.71 59.41 35.7 61.01 32.65C62.8842 28.8328 66.1743 25.8978 70.18 24.47C77.66 21.71 83.88 21.7 91.88 23.75C92.99 24.03 94.14 24.36 95.53 24.77L98.31 25.6C107.8 28.45 113.08 29.5 120 29.5C128.66 29.5 134.76 28.75 156.32 25.49C164.41 24.1956 172.537 23.1418 180.69 22.33C186.53 21.78 191.91 21.5 197 21.5C219.278 21.5 242.852 12.5847 256.592 0H255.104C241.457 12.0111 218.604 20.5 197 20.5C191.88 20.5 186.47 20.79 180.59 21.33C172.424 22.1449 164.284 23.202 156.18 24.5C134.67 27.75 128.59 28.5 120 28.5C113.2 28.5 108.01 27.46 99.54 24.92L95.81 23.81C94.41 23.39 93.25 23.07 92.13 22.78C83.93 20.69 77.53 20.7 69.83 23.53C65.5941 25.0464 62.1151 28.1524 60.13 32.19C58.47 35.34 57.56 38.4 56.15 44.67C54.54 51.81 53.71 54.64 52.12 57.66C51.2001 59.5384 49.9018 61.2063 48.3065 62.5589C46.7113 63.9115 44.8535 64.9197 42.85 65.52C39 66.74 35.87 67.86 33.26 68.98C26.55 71.85 22.85 74.73 19.05 79.76C18.7173 80.1986 18.4855 80.5012 18.2587 80.8075C17.565 81.7444 16.9185 82.7161 13.58 87.72C11.67 90.6 9.04999 93.37 5.27997 96.65C4.41522 97.4066 2.29987 99.1578 0 101.054ZM226.491 0H228.668C224.851 2.04019 220.652 3.89136 216.17 5.45999C210.11 7.57999 202.65 9.17999 194.08 10.33C186.86 11.29 179.16 11.9 171.25 12.22C165.95 12.43 161.98 12.49 157 12.49C155.96 12.49 154.36 12.76 151.74 13.36C151.445 13.4277 150.613 13.6251 149.57 13.8723C147.532 14.3553 144.69 15.0289 143.48 15.3C135.8 17.03 129.56 18 123.45 18.12C115.3 18.29 108.35 16.85 102.74 13.42C96.51 9.60999 90.34 8.26001 83.81 8.88C78.77 9.35999 74.37 10.74 66.97 13.74C60.22 16.48 59.68 16.69 57.15 17.47C51.42 19.23 47.87 25.43 44.34 37.19C43.9296 38.5604 42.8359 42.4006 42.2562 44.4359C42.0872 45.0294 41.9619 45.4694 41.91 45.65C40.25 51.3 39 54.43 37.38 56.32C35.16 58.9 32.54 59.94 25.37 61.62C17.57 63.45 14.24 65.28 12.47 70.16C10.8375 74.6503 6.00067 81.1369 0 87.6686V86.1822C5.57343 80.0247 10.0091 74.0025 11.53 69.82C13.46 64.52 17.03 62.55 25.95 60.45C32.1 59.01 34.59 58.03 36.62 55.66C38.12 53.92 39.34 50.87 40.95 45.36C41.0344 45.0738 41.3127 44.0981 41.6574 42.8896C42.2521 40.8047 43.0445 38.0268 43.38 36.9C47 24.82 50.68 18.41 56.85 16.51C59.3003 15.7651 59.8582 15.5389 66.1973 12.9691L66.59 12.81C74.08 9.78 78.56 8.38 83.71 7.89001C90.46 7.23999 96.84 8.64001 103.26 12.56C108.69 15.88 115.45 17.28 123.43 17.12C129.46 17 135.63 16.05 143.26 14.32C144.448 14.059 147.227 13.3978 149.26 12.9142C150.343 12.6567 151.214 12.4495 151.52 12.38C154.21 11.78 155.86 11.49 157 11.49C161.97 11.49 165.93 11.44 171.2 11.22C179.1 10.9 186.76 10.3 193.95 9.34C202.45 8.20001 209.85 6.60999 215.83 4.51999C219.61 3.19589 223.184 1.66934 226.491 0ZM154.174 0H156.979C156.35 0.230743 155.303 0.632751 154.293 1.02051C153.254 1.41946 152.254 1.80331 151.79 1.97C145.24 4.32001 138.2 5.5 127 5.5C118.9 5.5 113.42 4.12 104.54 0.600006L103.014 0H105.725C114.018 3.23328 119.289 4.5 127 4.5C138.09 4.5 145.02 3.34 151.46 1.03C151.91 0.868011 152.903 0.487396 153.94 0.089447C154.018 0.0596924 154.096 0.0298462 154.174 0ZM31.443 0H34.9758C32.4985 1.77588 29.9078 3.38934 27.22 4.83002C26.7785 5.07022 25.8228 5.56757 25.1354 5.92523C24.7642 6.11847 24.4712 6.2709 24.38 6.32001C23.54 6.76001 23.03 7.08002 22.63 7.39999C21.16 8.60001 21 9.79999 21 19C21 20.85 21.06 22.54 21.17 24.44C21.17 24.5358 21.2335 25.565 21.296 26.5794C21.3445 27.3654 21.3925 28.1426 21.41 28.47C21.51 31.22 21.28 32.76 20.33 34.18C18.66 36.68 18.06 36.98 1.38 43.92C0.905396 44.1183 0.445496 44.3195 0 44.5237V42.3335C0.204102 42.2451 0.410767 42.1572 0.619995 42.07C16.4 35.49 17.35 35.03 18.67 33.06C19.32 32.08 19.5 30.91 19.41 28.55C19.3868 27.9844 19.2615 26.0023 19.2015 25.0544C19.1841 24.7787 19.1722 24.5905 19.17 24.55C19.0586 22.7021 19.0019 20.8513 19 19C19 8.95999 19.18 7.63 21.37 5.85001C21.89 5.42999 22.5 5.05002 23.44 4.55002C23.71 4.41 25.62 3.42999 26.28 3.07001C28.0458 2.12241 29.7684 1.09802 31.443 0ZM5.92328 5.79272C6.43481 5.28583 6.97363 4.80637 7.53729 4.35675C5.95465 8.01633 5.5 11.9659 5.5 19C5.5 22.4178 3.901 24.5625 0 26.7792V25.6116C3.21643 23.6792 4.5 21.8156 4.5 19C4.5 12.9555 4.83521 9.12491 5.92328 5.79272ZM0 60.8191C1.64349 57.5403 3.86749 55.3535 6.73999 53.94C9.14001 52.77 11.38 52.27 16.27 51.58C20.81 50.95 22.77 50.53 24.97 49.52C27.86 48.21 30 46.1 31.55 42.79C33.08 39.49 33.78 36.89 34.98 30.89C36.62 22.75 37.83 19.1 41.09 14.69C45.2202 9.10266 52.0043 4.33478 62.6467 0H65.3914C64.9922 0.152374 64.5884 0.309021 64.18 0.470001C53.03 4.86002 46.05 9.67001 41.9 15.28C38.75 19.54 37.57 23.08 35.96 31.08C34.74 37.17 34.03 39.82 32.46 43.21C30.81 46.74 28.49 49.02 25.39 50.43C23.06 51.5 21.04 51.93 16.07 52.62C7.03003 53.89 3.29999 55.71 0.460022 62.2C0.307251 62.5492 0.153931 62.8932 0 63.2321V60.8191ZM283.48 0C278.006 6.30533 271.968 12.0995 265.44 17.31C254.22 26.25 242.31 32.65 229.89 35.51C222.8 37.14 215.56 38.43 207.4 39.57C204.24 40.01 201.05 40.41 197.13 40.89L187.73 42.01C176.09 43.44 170.12 44.58 165.8 46.54C156.7 50.68 137.71 52.5 117 52.5C115.69 52.5 114.31 52.38 112.86 52.16C109.802 51.628 106.787 50.8726 103.84 49.9C96.37 47.65 94.04 47.1 90.87 47.3C86.57 47.55 83.52 49.86 81.53 54.81C79.63 59.58 79.06 62.52 78.13 70.05C77.07 78.68 75.49 81.48 68.85 83.52C66.4521 84.2133 64.1225 85.1237 61.89 86.24C61.23 86.59 60.67 86.91 60.05 87.31L58.74 88.15C57.03 89.18 55.22 89.5 50 89.5C48.5995 89.5 46.6151 89.3819 44.7939 89.2736C42.6489 89.146 40.7305 89.0318 40.26 89.14C39.9547 89.2108 39.7372 89.2435 39.5289 89.3064C38.7071 89.5547 38.0272 90.2729 32.65 95.65C30.6827 97.5351 28.6022 99.2984 26.42 100.93C25.2869 101.808 21.8284 104.42 19.8385 105.923C19.1766 106.423 18.6772 106.8 18.48 106.95C13.49 110.77 10.08 113.61 7.33002 116.43C2.19 121.67 0.0700073 126.15 1.52997 130.17C3.08002 134.45 6.40002 135.35 11.7 133.6C14.4199 132.624 17.061 131.44 19.6 130.06C20.5169 129.586 23.1927 128.165 25.507 126.936C27.0038 126.141 28.3494 125.426 28.97 125.1C32.9276 122.989 37.0045 121.109 41.18 119.47C44.13 118.34 47.58 116.81 52.29 114.59L65.29 108.37C69.69 106.29 73.38 104.6 76.9 103.1C93.8 95.89 105.79 93.35 113.82 96.47L119.25 98.55C121.55 99.44 123.41 100.18 125.25 100.93C130.04 102.9 134.24 104.8 138.24 106.9C156.35 116.4 168.16 128.7 172.51 146.12C179.41 173.69 176.11 191.08 164.59 207.72C160.23 214.02 160.83 218.56 165.53 218.25C170.05 217.95 176.37 213.08 181.42 205.27C184.59 200.36 186.61 194.64 189.59 183.46L191.28 177.11C191.95 174.64 192.52 172.6 193.1 170.64C197.99 154.28 203.95 143.73 214.29 136.41C218.987 133.078 227.801 127.405 233.767 123.566C236.845 121.585 239.164 120.092 239.77 119.66C246.65 114.74 250.57 109.96 254.47 101.16C262 84.21 274.98 77.5 298 77.5C307.43 77.5 316.05 76.36 327.73 73.99C329.796 73.5587 331.863 73.1287 333.93 72.7C336.32 72.21 337.99 71.88 339.57 71.59C340.807 71.3631 341.945 71.1719 343 71.0162V70.0005C341.89 70.161 340.694 70.3607 339.39 70.6C337.8 70.89 336.13 71.23 333.73 71.73C331.666 72.1671 329.599 72.5938 327.53 73.01C315.91 75.37 307.36 76.5 298 76.5C274.62 76.5 261.27 83.4 253.53 100.84C249.72 109.4 245.93 114.03 239.19 118.84C238.592 119.267 236.259 120.77 233.162 122.764C227.203 126.601 218.415 132.26 213.71 135.59C203.15 143.07 197.08 153.79 192.15 170.35C191.56 172.33 190.98 174.38 190.32 176.85L188.63 183.2C185.68 194.28 183.68 199.93 180.58 204.73C175.68 212.3 169.61 216.97 165.47 217.25C161.89 217.48 161.44 214.03 165.41 208.28C177.09 191.41 180.45 173.73 173.49 145.88C169.05 128.14 157.04 115.64 138.7 106.01C134.441 103.803 130.08 101.801 125.63 100.01C123.78 99.25 121.91 98.51 119.61 97.63L114.18 95.53C105.83 92.28 93.65 94.88 76.51 102.18C72.96 103.69 69.27 105.37 64.86 107.47C63.4524 108.13 59.5466 110.005 56.3077 111.559C54.3463 112.5 52.6295 113.324 51.86 113.69C48.2413 115.44 44.5587 117.054 40.82 118.53C36.6102 120.183 32.4999 122.08 28.51 124.21C27.8295 124.565 26.2898 125.384 24.6335 126.265C22.4199 127.442 19.998 128.73 19.14 129.17C16.6425 130.526 14.045 131.69 11.37 132.65C6.53998 134.25 3.81 133.5 2.46997 129.83C1.17999 126.28 3.15002 122.11 8.02997 117.13C10.76 114.35 14.13 111.53 19.09 107.75C19.374 107.531 20.3026 106.829 21.442 105.967C23.4314 104.462 26.0635 102.47 27.03 101.72C29.86 99.53 31.85 97.85 33.35 96.35C38.6154 91.0928 39.223 90.4528 39.9563 90.2336C40.1129 90.1869 40.2753 90.1593 40.49 90.11C40.8315 90.0296 42.4214 90.1284 44.325 90.2466C46.2119 90.3637 48.407 90.5 50 90.5C55.39 90.5 57.35 90.15 59.25 89.01L60.59 88.15C61.19 87.77 61.72 87.46 62.35 87.13C64.5311 86.0385 66.8072 85.1481 69.15 84.47C76.25 82.29 78.02 79.15 79.12 70.17C80.04 62.72 80.6 59.85 82.46 55.19C84.3 50.59 87.03 48.53 90.93 48.3C93.93 48.11 96.22 48.65 103.56 50.86C107.7 52.12 110.08 52.74 112.7 53.15C114.2 53.38 115.63 53.5 117 53.5C137.86 53.5 156.93 51.67 166.21 47.46C170.4 45.55 176.32 44.41 187.85 43L197.24 41.88C201.18 41.41 204.37 41 207.54 40.56C215.12 39.5377 222.651 38.1797 230.11 36.49C242.7 33.59 254.74 27.12 266.06 18.1C272.866 12.6696 279.143 6.60928 284.809 0H283.48ZM293.887 0C284.979 8.03848 272.455 18.4907 266.71 22.59C253.62 31.94 235.66 42.72 222.83 47.53C218.39 49.19 214.18 50.46 209.63 51.53C206.38 52.3 203.07 52.95 198.43 53.76C197.91 53.84 189.64 55.26 186.93 55.74C182.06 56.61 177.61 57.49 172.9 58.51C152.35 62.98 147.96 63.5 135 63.5C132.604 63.5 132.141 63.4203 121.174 61.5293L121.12 61.52C118.69 61.1 116.79 60.79 114.95 60.52C106.69 59.3 100.87 59.13 96.87 60.35C91.75 61.92 90.1 65.79 92.53 72.18C94.63 77.68 97.61 81.2 101.83 83.45C105.22 85.26 108.79 86.14 115.96 87.26C125.34 88.73 126.86 88.99 131.36 90.16C137.78 91.7873 143.964 94.2341 149.76 97.44C157.88 101.92 164.03 108.7 169.36 117.94C170.964 120.743 174.006 127.061 176.437 132.111C178.082 135.528 179.448 138.365 179.9 139.14C183.6 145.51 187.21 146.5 192.35 141.36C197.21 136.5 202.55 133.11 213.25 127.46L215.37 126.34C223.39 122.11 227.36 119.79 231.38 116.72C236.62 112.72 240.27 108.39 242.46 103.2C250.84 83.29 262.81 70.5 274 70.5L279.49 70.53C290.04 70.61 296.88 70.55 304.44 70.22C318.24 69.59 328.45 68.11 334.21 65.45C336.762 64.2708 339.651 63.0742 343 61.8031V60.7406C339.48 62.0701 336.456 63.3194 333.79 64.55C328.18 67.13 318.06 68.6 304.4 69.22C296.85 69.55 290.03 69.61 279.5 69.53L274 69.5C262.29 69.5 250.06 82.57 241.54 102.81C239.43 107.82 235.88 112.02 230.77 115.92C226.82 118.95 222.88 121.25 214.9 125.46C214.85 125.477 213.756 126.06 213.113 126.403L212.78 126.58C202 132.27 196.6 135.7 191.65 140.64C187.02 145.27 184.16 144.49 180.76 138.64C180.339 137.915 179.061 135.257 177.495 132.001C175.043 126.901 171.886 120.337 170.22 117.45C164.82 108.06 158.54 101.14 150.24 96.56C144.375 93.3155 138.117 90.8385 131.62 89.19C127.06 88.02 125.54 87.75 116.12 86.27C109.05 85.16 105.56 84.3 102.3 82.56C98.3 80.43 95.48 77.1 93.46 71.82C91.23 65.95 92.62 62.7 97.16 61.3C100.97 60.14 106.69 60.31 114.8 61.5C116.64 61.77 118.53 62.08 120.95 62.5C132.1 64.43 132.51 64.5 135 64.5C148.04 64.5 152.49 63.97 173.11 59.49C177.81 58.47 182.25 57.6 187.11 56.73C188.821 56.4195 192.768 55.7436 195.566 55.2646C197.183 54.9877 198.416 54.7766 198.61 54.74C203.26 53.93 206.58 53.28 209.86 52.5C214.383 51.4475 218.832 50.1013 223.18 48.47C236.12 43.61 254.13 32.81 267.29 23.41C273.242 19.1617 286.394 8.15997 295.368 0H293.887ZM310.005 0L309.46 0.550018C301.51 8.69 299.44 10.68 296.71 12.59C295.74 13.27 291.08 16.42 291.41 16.19C289.207 17.6754 287.04 19.2125 284.91 20.8C276.56 27.06 271.39 32.66 270.06 38.08C268.94 42.65 270.71 46.8 275.71 50.41C278.25 52.24 281.15 52.98 285.93 53.38L287.66 53.53C292.63 53.9 294.7 54.27 296.75 55.43C297.021 55.5848 297.889 56.1039 298.892 56.7033C300.221 57.498 301.786 58.4339 302.51 58.85C309.35 62.73 314.94 64.41 320.49 63.27C321.41 63.09 322.3 62.82 323.19 62.46L325.25 61.68C325.52 61.59 330.1 59.98 331.5 59.46C336.42 57.6 339.81 55.8 342.35 53.36C342.448 53.2663 342.683 53.0155 343 52.671V51.1854C342.99 51.1962 342.98 51.2069 342.97 51.2177C342.318 51.9313 341.799 52.498 341.65 52.64C339.23 54.96 335.95 56.72 331.15 58.52C330.016 58.9473 326.721 60.1039 325.427 60.5581C325.146 60.6567 324.96 60.7222 324.91 60.74C324.206 60.9949 323.505 61.2616 322.81 61.54C321.99 61.87 321.15 62.12 320.29 62.29C315.04 63.37 309.66 61.75 303 57.97C302.273 57.5661 300.684 56.6162 299.344 55.8157C298.362 55.2288 297.515 54.7223 297.24 54.57C295.02 53.3 292.86 52.92 287.74 52.52L286.01 52.39C281.4 51.99 278.65 51.29 276.29 49.59C271.61 46.22 270.01 42.47 271.03 38.32C272.28 33.2 277.34 27.73 285.51 21.6C287.46 20.14 289.48 18.72 291.98 17.01C291.64 17.25 296.3 14.1 297.29 13.41C300.09 11.45 302.15 9.45001 310.17 1.25C310.566 0.830872 310.964 0.414215 311.364 0H310.005ZM323.332 0.00271606C320.151 3.10614 316.089 6.49411 310.45 10.89C294.57 23.27 294.43 23.39 291.05 27.33C286.12 33.11 286.25 37.74 292.55 40.89C305.48 47.36 310.75 49.58 316.11 50.37C322.57 51.31 327.62 49.31 332.74 43.67C336.155 39.9133 338.944 37.9117 343 36.3791V34.2516C338.276 35.9194 335.121 38.0845 331.26 42.33C326.57 47.49 322.17 49.23 316.39 48.39C311.34 47.65 306.16 45.46 293.45 39.11C288.48 36.63 288.4 33.53 292.57 28.63C295.81 24.85 296.01 24.68 311.67 12.47C318.112 7.45123 322.524 3.72803 325.949 0.215942C325.094 0.089447 324.22 0.0171814 323.332 0.00271606ZM334.11 3.3671C331.697 6.4097 328.7 9.3013 325.12 12.17C323.542 13.4349 320.015 15.9642 316.936 18.1725C314.417 19.9794 312.198 21.5715 311.59 22.08C307.92 25.14 307.41 27.42 310.74 29.42C311.493 29.8757 312.24 30.3424 312.98 30.82L314.97 32.1C316.119 32.8599 317.33 33.5222 318.59 34.08C323.94 36.33 329.28 34.24 342.3 24.4C342.531 24.2257 342.764 24.0526 343 23.8806V22.649C342.558 22.9621 342.125 23.279 341.7 23.6C328.94 33.23 323.88 35.23 318.98 33.16C317.99 32.75 316.98 32.18 315.51 31.25L313.52 29.97L311.26 28.57C308.67 27.02 309.01 25.53 312.23 22.85C312.817 22.357 315.009 20.7852 317.512 18.9909C320.593 16.7819 324.144 14.2357 325.75 12.95C329.397 10.0254 332.459 7.06766 334.929 3.94531C334.661 3.74594 334.388 3.55313 334.11 3.3671ZM0 169.583C1.341 169.185 2.78558 168.779 4.35999 168.35C10.48 166.68 13.48 165.4 16.67 162.63C20.47 159.33 24.14 158.11 32.53 156.53C35.28 156.01 36.2 155.83 37.59 155.51C43.07 154.27 47.07 152.58 50.69 149.62C61.11 141.09 76.09 135.51 87 135.51C92.33 135.51 103.77 143.09 112.74 152.67C123.47 164.13 128.7 175.94 125.47 185.17C122.29 194.27 114.08 203.74 102.44 213.03C94 219.76 84.08 226.03 77.22 229.46C73.5 231.32 70.63 234.34 67.45 239.45C67.2784 239.724 66.5057 241.113 65.3657 243.164C61.9213 249.359 55.124 261.585 51.42 267.28C45.8 275.93 36.02 284.64 21.19 295.24C18.1451 297.411 15.0783 299.551 11.99 301.66C11.9633 301.679 11.6593 301.886 11.1777 302.215C9.31854 303.486 4.81177 306.565 3.39001 307.55C2.17126 308.39 1.04437 309.175 0 309.911V308.684C0.882202 308.064 1.8205 307.41 2.82001 306.72L11.42 300.83C15.05 298.35 17.87 296.39 20.61 294.43C35.34 283.89 45.05 275.25 50.58 266.73C54.2074 261.148 60.8546 249.209 64.3505 242.93C65.577 240.727 66.4156 239.221 66.6 238.93C69.87 233.67 72.86 230.52 76.78 228.56C83.57 225.16 93.43 218.93 101.81 212.24C113.33 203.06 121.42 193.71 124.53 184.84C127.6 176.06 122.51 164.57 112.01 153.35C103.21 143.95 91.97 136.51 87 136.51C76.33 136.51 61.57 142.01 51.32 150.4C47.56 153.47 43.42 155.21 37.82 156.49C36.41 156.81 35.47 156.99 32.71 157.51C24.5 159.06 20.95 160.24 17.33 163.39C13.99 166.29 10.88 167.61 4.63 169.31C2.94623 169.769 1.41388 170.201 0 170.625V169.583ZM0 177.463C2.6571 176.994 5.37445 177.207 8.70001 177.87C13.74 178.87 14.75 178.77 16.13 176.35C20.63 168.5 23.17 166.85 32 166.85C35.93 166.85 38.97 165.87 42.47 163.69C43.2489 163.206 45.4116 161.667 47.6707 160.059C49.936 158.447 52.2984 156.766 53.46 156.01C62.66 150.03 64.8 149.01 78.66 144.06C85.61 141.58 93.84 145.34 100.99 153.18C107.54 160.37 112 169.79 112 176.85C112 184.41 111.4 187.77 109.4 191.15C108.582 192.519 104.742 197.412 102.442 200.343C101.65 201.353 101.041 202.13 100.8 202.45C94.84 210.39 91.47 212.73 83.54 216.21C82.2 216.79 81.34 217.21 80.51 217.71C79.96 218.04 79.31 218.37 78.51 218.73C78.1845 218.881 77.2201 219.293 76.1688 219.742C74.927 220.273 73.564 220.855 72.99 221.12C66.94 223.9 64 226.92 64 231.85C64 242.82 45.05 267.97 29.49 276.72C22.0823 280.886 10.6234 285.183 0 287.813V285.788C9.80145 283.391 20.4814 279.495 28.51 274.98C43.49 266.55 62 241.99 62 231.85C62 225.95 65.47 222.37 72.16 219.3C72.8154 219.002 74.4117 218.321 75.7367 217.755C76.6354 217.372 77.4092 217.041 77.68 216.92C78.42 216.58 79 216.28 79.48 215.99C80.4 215.44 81.33 214.99 82.73 214.37C90.38 211.02 93.48 208.87 99.2 201.25C99.4814 200.875 100.176 199.989 101.056 198.869C103.364 195.927 106.946 191.364 107.67 190.14C109.459 187.131 110 184.082 110 176.848C109.999 170.348 105.749 161.369 99.51 154.53C92.84 147.21 85.35 143.79 79.34 145.94C65.61 150.84 63.61 151.79 54.54 157.69C53.445 158.404 51.1816 160.016 48.9621 161.597C46.6412 163.25 44.3683 164.869 43.53 165.39C39.73 167.75 36.33 168.85 32 168.85C23.92 168.85 22.02 170.08 17.87 177.35C16.77 179.26 15.36 180.23 13.52 180.44C12.22 180.58 11.62 180.49 8.29999 179.83C5.06439 179.186 2.51007 178.995 0 179.499V177.463ZM0 191.097C2.90222 190.512 5.87848 190.228 9.84998 190C14.6 189.73 16.53 189.36 18.85 187.95C19.46 187.58 20.07 187.14 20.67 186.62C21.8804 185.576 23.0071 184.44 24.04 183.22C24.63 182.53 26.42 180.32 26.67 180.03C30.03 176.03 32.97 174.5 39 174.5C42.94 174.5 44.9 173.58 47.18 171.14C47.01 171.32 49.93 168 51.03 166.92C53.0546 164.951 55.3392 163.269 57.82 161.92C59.32 161.09 60.97 160.3 62.81 159.54C66.2878 158.132 69.637 156.426 72.82 154.44V154.45C72.97 154.35 75.22 152.94 75.77 152.61C76.73 152.04 77.47 151.67 78.2 151.44C80.77 150.61 83.26 151.34 89.24 154.56C104.1 162.56 108.67 177.43 98.42 193.27C94.38 199.51 89.05 202.27 79.7 204.38C78.9978 204.545 78.6368 204.622 77.4446 204.874L76.57 205.06C70.53 206.35 67.79 207.14 64.97 208.71C61.34 210.73 58.88 213.69 57.47 218.15C49.6 243.08 37.75 261.49 21.19 268.46C10.339 273.031 4.60938 275.283 0 276.39V275.355C4.50964 274.246 10.1818 272.011 20.81 267.54C37.02 260.71 48.73 242.53 56.52 217.84C58.01 213.14 60.64 209.98 64.49 207.84C67.42 206.21 70.23 205.39 76.36 204.08C77.9515 203.748 78.4712 203.63 79.0807 203.491C79.2066 203.462 79.3362 203.433 79.48 203.4C88.6 201.34 93.72 198.7 97.58 192.73C107.5 177.39 103.13 163.18 88.76 155.44C83.01 152.34 80.73 151.68 78.51 152.39C77.86 152.59 77.18 152.93 76.28 153.47C75.8054 153.746 74.0874 154.826 73.5224 155.182C73.4326 155.238 73.3719 155.276 73.35 155.29C70.119 157.304 66.7196 159.033 63.19 160.46C61.39 161.21 59.77 161.98 58.3 162.79C55.8994 164.096 53.6889 165.724 51.73 167.63C50.4228 168.999 49.1491 170.399 47.91 171.83C45.45 174.46 43.23 175.5 39 175.5C33.28 175.5 30.61 176.89 27.43 180.67C27.2 180.95 25.4 183.17 24.8 183.87C23.7366 185.129 22.5764 186.302 21.33 187.38C20.68 187.93 20.03 188.41 19.37 188.81C16.87 190.32 14.82 190.71 9.90002 191C5.88672 191.228 2.91455 191.515 0 192.119V191.097ZM0 196.912C1.41156 196.755 3.07483 196.641 5.09998 196.54C10.43 196.27 12.66 196.08 15.91 195.51C32.06 192.64 42.27 194.54 48.38 201.67C53.46 207.6 49.51 223.09 42.45 237.22C37.66 246.8 31.85 253.43 19.29 262.41C13.5285 266.522 6.5733 269.309 0 270.603V269.578C6.36334 268.293 13.114 265.587 18.71 261.59C31.14 252.71 36.84 246.2 41.55 236.78C48.41 223.06 52.3 207.78 47.62 202.33C41.78 195.52 31.92 193.68 16.09 196.49C12.79 197.08 10.53 197.27 5.15002 197.54C3.08313 197.643 1.40717 197.758 0 197.918V196.912ZM0 203.717C0.995667 203.274 2.07941 202.896 3.25 202.58C7.65002 201.38 12.79 201.08 20.73 201.25L24.62 201.35C28.49 201.46 30.04 201.5 32 201.5C39.12 201.5 42.66 204.58 43.25 210.2C43.67 214.22 42.82 218.34 40.48 226.14C37.92 234.66 22.12 251.52 13.28 257.42C9.81689 259.727 4.88947 261.138 0 261.412V260.406C4.68726 260.135 9.41846 258.786 12.72 256.59C21.38 250.81 37.05 234.1 39.52 225.86C41.82 218.19 42.66 214.15 42.25 210.3C41.72 205.2 38.61 202.5 32 202.5C30.03 202.5 28.47 202.46 24.59 202.35L20.71 202.25C12.86 202.08 7.78998 202.38 3.51001 203.55C2.22498 203.895 1.05487 204.317 0 204.82V203.717ZM0 242.124C2.0202 243.754 5.06726 243.837 9.15997 242.47C21.99 238.2 31.5 230.59 31.5 221C31.5 215.93 28.2 212.68 22.78 210.9C20.0023 210.037 17.1179 209.566 14.21 209.5C11.201 209.848 8.30756 210.863 5.73999 212.47C3.38104 213.959 1.43219 215.904 0 218.348V220.545C1.3764 217.423 3.52582 215.043 6.27002 213.31C8.50549 211.91 11.0031 210.981 13.61 210.58C13.7496 210.557 13.871 210.539 13.9742 210.526C14.1 210.509 14.1986 210.5 14.27 210.5C17.0552 210.54 19.8188 210.995 22.47 211.85C27.52 213.5 30.5 216.44 30.5 221C30.5 230 21.3 237.37 8.83997 241.53C4.68756 242.913 1.76038 242.728 0 240.735V242.124ZM343 134.455C336.499 135.925 330.186 138.255 322.79 141.54C321.27 142.22 319.81 143.5 318.27 145.43C316.867 147.183 312.89 153.771 309.68 159.089C307.836 162.145 306.244 164.782 305.54 165.84C299.9 174.29 294.03 180.4 286.74 184.57C278.01 189.55 269.14 198.97 259.79 212.1C255.755 217.763 248.168 229.764 243.828 236.63C242.036 239.463 240.797 241.422 240.59 241.7C228.09 258.37 213.23 274.82 203.77 279.55C191.83 285.52 147.91 297.5 137.99 297.5C128.73 297.5 99.05 322.75 81.61 343.68C66.44 361.87 67.32 363.35 96.87 370.49C108.691 373.338 114.94 372.831 121.655 369.198C121.317 369.371 133.056 362.134 138.17 359.79C144.259 357.067 150.603 354.957 157.11 353.49C175.87 349.04 190.97 351.17 195.57 358.27C197.46 361.2 197.88 365.15 197.25 370.66C197.09 372.13 196.88 373.53 196.51 375.73C195.66 380.89 195.49 382.1 195.49 384C195.49 400.67 188.52 427.88 180.62 436.67C176.82 440.88 173.72 447.5 169.06 459.94L166.32 467.27C165.29 470.01 164.45 472.15 163.65 474.07C161.79 478.53 160.18 481.66 158.59 483.7C155.326 487.892 150.052 491.433 143.613 494H146.17C151.78 491.466 156.385 488.161 159.38 484.31C161.03 482.19 162.68 478.99 164.58 474.46C165.38 472.52 166.22 470.38 167.26 467.62C167.594 466.745 168.45 464.436 169.126 462.613C169.525 461.54 169.86 460.635 169.99 460.29C174.6 447.98 177.68 441.42 181.36 437.33C189.46 428.33 196.49 400.9 196.49 384C196.49 382.19 196.66 380.98 197.5 375.9C197.796 374.197 198.046 372.486 198.25 370.77C198.89 365.05 198.46 360.9 196.41 357.73C191.52 350.16 176 347.98 156.87 352.51C149.36 354.29 143.17 356.4 137.76 358.88C132.51 361.29 120.53 368.67 121.2 368.32C114.71 371.82 108.71 372.32 97.11 369.52C68.18 362.53 67.77 361.84 82.37 344.32C99.6 323.65 129.17 298.5 137.99 298.5C148.07 298.5 192.15 286.48 204.21 280.45C213.87 275.62 228.79 259.1 241.39 242.3C241.619 241.997 242.973 239.857 244.905 236.802C249.293 229.862 256.666 218.204 260.61 212.67C269.88 199.66 278.67 190.33 287.24 185.43C294.67 181.19 300.65 174.96 306.37 166.39C307.093 165.305 308.716 162.616 310.584 159.521C313.777 154.23 317.687 147.751 319.05 146.06C320.5 144.24 321.85 143.06 323.19 142.46C330.448 139.232 336.643 136.938 343 135.48V134.455ZM343 147.709C338.212 150.052 334.452 153.305 330.7 157.81C329.45 159.29 328.21 160.9 326.41 163.29L324.1 166.38C323.273 167.491 322.439 168.598 321.6 169.7C317.55 174.99 314.65 178.04 311.39 180.64C310.75 181.15 310.08 181.65 309.29 182.23L305.17 185.17C303.39 186.48 301.76 187.73 299.97 189.2C295.39 192.96 290.17 197.85 283.64 204.65C275.17 213.47 271.57 218.53 271.67 221.34C271.76 223.83 273.62 224.38 279.39 224.68C281 224.77 281.54 224.8 282.34 224.87C285.16 225.11 287.19 225.56 288.76 226.44C296.06 230.49 300.11 233.52 302.31 237.61C305.35 243.27 303.02 249.5 293.69 256.61C285.2 263.07 282.21 267.37 281.99 272.31C281.951 273.842 282.041 275.374 282.26 276.89C282.93 283.2 282.51 287.21 279.54 293.79C278.16 296.86 276.83 299.26 275.48 301.16C272.78 304.94 270.29 306.61 265.34 308.49C265.179 308.551 264.654 308.745 264.013 308.982C262.977 309.364 261.641 309.858 261.06 310.08C259.25 310.78 257.64 311.46 255.98 312.26C251.263 314.559 246.808 317.358 242.69 320.61C234.07 327.27 229.16 335.51 226.36 346.21C225.25 350.46 224.79 353.09 223.55 361.53C222.3 370.02 221.4 373.99 219.55 377.78C217.945 381.066 211.815 394.88 208.553 402.231C207.546 404.499 206.813 406.152 206.57 406.69C204.26 411.76 202.19 416.14 200.22 420.07C196.18 428.11 192.67 434.02 189.62 437.68C184.13 444.27 180.49 452.25 175.66 466.41C175.034 468.277 174.407 470.144 173.78 472.01C172.479 475.983 171.065 479.918 169.54 483.81C168.066 487.493 165.804 490.923 162.921 494H164.273C166.94 491.014 169.049 487.716 170.46 484.19C171.76 480.94 172.92 477.69 174.72 472.34C175.343 470.471 175.973 468.604 176.61 466.74C181.4 452.69 185 444.78 190.38 438.32C193.5 434.58 197.04 428.62 201.11 420.51C203.32 416.082 205.444 411.611 207.48 407.1C207.747 406.513 208.592 404.608 209.737 402.028C213.054 394.551 218.889 381.402 220.45 378.22C222.36 374.31 223.27 370.27 224.53 361.67C225.78 353.27 226.23 350.66 227.33 346.46C230.08 335.96 234.87 327.91 243.31 321.4C248.01 317.76 252.23 315.16 256.41 313.16C258.04 312.38 259.62 311.7 261.42 311.02C262.35 310.66 265.26 309.59 265.69 309.43C270.82 307.48 273.47 305.71 276.29 301.74C277.918 299.371 279.311 296.849 280.45 294.21C283.5 287.44 283.94 283.26 283.25 276.79C282.99 274.29 282.93 273.53 282.99 272.36C283.2 267.77 286.02 263.7 294.3 257.4C303.99 250.02 306.49 243.29 303.19 237.14C300.87 232.82 296.72 229.71 289.24 225.56C287.52 224.61 285.38 224.12 282.43 223.88C281.606 223.801 281.067 223.77 279.482 223.682L279.45 223.68C274.3 223.41 272.73 222.95 272.66 221.3C272.58 218.89 276.11 213.93 284.36 205.35C290.87 198.57 296.06 193.71 300.61 189.97C302.289 188.588 304.01 187.257 305.77 185.98L309.88 183.04C310.68 182.46 311.36 181.94 312.01 181.42C315.34 178.78 318.3 175.66 322.4 170.3L324.91 166.98L327.21 163.89C328.579 162.04 329.997 160.226 331.46 158.45C334.995 154.211 338.523 151.111 343 148.843V147.709ZM343 255.11C338.405 252.129 333.72 248.956 333.72 248.95C332.017 247.875 330.283 246.852 328.52 245.88C312.48 237.05 294.25 221.72 294 214.03C293.89 210.57 295.99 207.46 300.28 203.77C301.31 202.87 302.46 201.96 303.96 200.82C304.2 200.636 304.657 200.29 305.18 199.893C306.222 199.103 307.527 198.113 307.9 197.82C312.37 194.42 315.08 192.03 317.22 189.37C325.065 179.621 335.054 169.354 343 162.888V165.478C335.43 171.854 326.132 181.49 318.78 190.63C316.51 193.45 313.7 195.93 309.11 199.42L305.17 202.4C303.946 203.325 302.749 204.286 301.58 205.28C297.71 208.61 295.91 211.28 296 213.97C296.21 220.61 314.14 235.69 329.48 244.12C331.24 245.09 332.98 246.12 334.78 247.25C334.845 247.293 338.821 249.987 343 252.721V255.11ZM343 245.154V244.01C342.844 243.921 342.687 243.831 342.53 243.74C338.108 241.125 333.82 238.291 329.68 235.25C328.328 234.274 325.123 231.915 322.541 230.015C320.865 228.782 319.452 227.742 318.98 227.4C315.14 224.62 312.47 222.83 310.24 221.63C306.12 219.42 306.42 216.1 310.7 211.02C313.91 207.21 314.82 206.41 328.68 194.81C332.44 191.66 335.12 189.34 337.6 187.04C339.241 185.526 340.828 183.955 342.36 182.33C342.574 182.102 342.788 181.882 343 181.67V180.293C342.549 180.71 342.096 181.163 341.64 181.65C340.121 183.258 338.547 184.812 336.92 186.31C334.023 188.965 331.059 191.546 328.03 194.05C314.1 205.71 313.2 206.5 309.93 210.38C305.31 215.87 304.94 219.91 309.76 222.51C312.755 224.225 315.637 226.129 318.39 228.21C318.945 228.607 320.796 229.971 322.847 231.481C325.234 233.238 327.891 235.194 329.09 236.06C334.03 239.6 338.1 242.33 342.03 244.6C342.355 244.789 342.679 244.973 343 245.154ZM343 211.187C339.462 212.026 336.577 213.385 334.74 215.2C331.85 218.06 331.68 221.85 334.58 226.26C337.322 230.423 339.992 233.633 343 236.057V234.754C340.328 232.469 337.91 229.502 335.42 225.71C332.76 221.68 332.91 218.41 335.44 215.91C337.09 214.281 339.733 213.016 343 212.212V211.187ZM67.76 190.43C79.55 196.99 91.76 196.93 94.48 187.13L94.49 187.14C98.17 173.87 96.35 164.2 87.19 160.54C82.01 158.46 77.92 158.83 73.19 161.26C71.8492 161.967 70.5413 162.734 69.27 163.56L67.24 164.86C65.7827 165.818 64.2881 166.719 62.76 167.56C53.96 172.45 57.59 184.79 67.76 190.43ZM69.81 164.4C71.0554 163.593 72.3367 162.842 73.65 162.15V162.16C78.13 159.84 81.92 159.51 86.82 161.46C95.37 164.89 97.09 174.03 93.52 186.86C91.04 195.79 79.55 195.85 68.24 189.56C58.65 184.24 55.3 172.84 63.24 168.44C64.02 168.01 64.8 167.55 65.62 167.05C66.1776 166.712 66.7352 166.36 67.4014 165.939L67.78 165.7L69.81 164.4ZM84.86 184.26C89.06 183.3 91.5 180 91.5 174.3C91.5 162.54 77.4 160.64 70.6 169.7C66.13 175.66 66.19 178.25 70.26 180.63C70.71 180.89 71.22 181.17 71.89 181.51L73.78 182.45C77.3 184.21 81.56 185.02 84.86 184.26ZM83.18 165.14C87.63 165.75 90.5 169 90.5 174.3V174.29C90.5 179.55 88.37 182.43 84.64 183.29C81.58 183.99 77.56 183.22 74.22 181.55L72.35 180.62C71.69 180.28 71.2 180.02 70.76 179.77C67.3 177.74 67.25 175.84 71.4 170.3C74.19 166.58 78.95 164.57 83.18 165.14ZM98.07 434.31C101.05 432.94 102.5 430.16 102.5 425.38C102.5 419.58 101.25 418.14 96.81 417.31C92.45 416.5 91.02 416.11 88.24 414.56C79.1 409.49 68.5 412.41 68.5 420C68.5 427.85 76.31 435.5 85.5 435.5L87.28 435.51C93.52 435.54 95.78 435.36 98.07 434.31ZM96.62 418.3C100.6 419.04 101.5 420.08 101.5 425.38C101.5 429.8 100.25 432.2 97.65 433.4C95.55 434.36 93.35 434.54 87.29 434.5H85.5C76.86 434.5 69.5 427.3 69.5 420C69.5 413.34 79.19 410.68 87.76 415.44C90.66 417.05 92.17 417.47 96.62 418.3ZM150.93 302.98C143.53 304.83 138.54 306.22 134.83 307.53C130.73 308.98 127.69 310.42 125.39 311.96C122.49 313.91 121.05 315.66 119.12 319.02C116.76 323.15 115.96 324.33 113.64 326.65C112.269 328.021 111.7 328.543 108.138 331.815L107.74 332.18L105.96 333.82C101.78 337.7 99.33 340.34 97.88 342.79C95.99 345.98 96.13 348.56 98.71 350.41C107.55 356.72 113.72 358.03 126.13 354.48C131.71 352.89 137.24 350.61 145.03 346.91C144.73 347.05 153.09 343.04 155.26 342.04C158.143 340.661 161.112 339.472 164.15 338.48C167.54 337.44 169.84 337.2 174.66 337.14C175.11 337.12 175.32 337.12 175.58 337.12C181.44 337.02 185.06 336.26 190.24 333.44C201.26 327.43 204.16 326.5 212 326.5C215.61 326.5 217.86 324.7 220.54 320.78C220.69 320.55 221.72 319.01 222.01 318.6C223.53 316.42 224.62 315.5 226 315.5C233.81 315.5 241.26 313.45 246.35 308.35C248.05 306.66 250.18 305.64 255.03 303.89L256.05 303.52C260.32 301.96 262.54 300.94 264.52 299.36C267.13 297.28 268.5 294.59 268.5 291C268.5 274.73 271.95 262.41 280.25 257.43C285.43 254.32 289.95 249.47 291.35 245.41C293.01 240.57 290.2 237.5 283 237.5C278.73 237.5 275.13 236.4 270.35 234.06L269.09 233.43C267.932 232.818 266.751 232.251 265.55 231.73C263.84 230.98 262.49 230.59 261.23 230.53C258.2 230.4 255.8 232.28 253.55 236.78C246.59 250.7 224.65 274.63 209.72 284.58C203.04 289.03 191.08 293 171.49 297.93C169.35 298.466 164.413 299.674 159.867 300.786C155.851 301.768 152.14 302.675 150.93 302.98ZM125.95 312.79C128.17 311.3 131.14 309.89 135.17 308.47C138.84 307.18 143.8 305.79 151.17 303.95C152.272 303.672 155.448 302.897 159.039 302.02C163.857 300.843 169.421 299.484 171.73 298.9C191.44 293.94 203.47 289.96 210.28 285.42C225.35 275.37 247.41 251.3 254.45 237.23C256.54 233.05 258.61 231.43 261.19 231.53C261.653 231.552 261.963 231.549 262.27 231.583C263.247 231.69 264.184 232.166 269.91 234.96C274.81 237.36 278.55 238.5 283 238.5C289.57 238.5 291.82 240.96 290.4 245.09C289.09 248.9 284.74 253.57 279.74 256.57C271.03 261.8 267.5 274.4 267.5 291C267.5 296.91 264.31 299.45 255.71 302.58L254.69 302.95C249.69 304.75 247.48 305.81 245.65 307.65C240.78 312.5 233.57 314.5 226 314.5C224.19 314.5 222.89 315.59 221.19 318.02L219.71 320.22C217.2 323.9 215.19 325.5 212 325.5C203.96 325.5 200.92 326.48 189.76 332.56C184.74 335.3 181.28 336.03 175.56 336.13H174.65C169.74 336.2 167.36 336.44 163.85 337.53C160.771 338.532 157.762 339.735 154.84 341.13C152.66 342.13 144.3 346.15 144.6 346.01C136.86 349.68 131.36 351.95 125.86 353.52C113.75 356.98 107.89 355.74 99.29 349.6C97.2 348.1 97.09 346.09 98.74 343.3C100.12 340.96 102.54 338.37 106.64 334.55L108.41 332.92L108.613 332.734C112.37 329.292 112.945 328.765 114.35 327.35C116.75 324.96 117.59 323.72 119.99 319.52C121.85 316.28 123.2 314.64 125.95 312.79ZM159.25 311.81C156 312.3 154.08 312.5 152 312.5C150.86 312.5 149.88 312.49 148.23 312.46C139.82 312.31 137.43 312.68 134.05 315.39C133.58 315.76 133.11 316.18 132.65 316.65C132.624 316.675 132.465 316.823 132.201 317.068C130.432 318.709 123.958 324.718 121.2 327.45C119.69 328.95 118.31 330.38 117.05 331.75C112.83 336.32 110.12 340.07 109.25 342.88C108.12 346.47 110.02 348.5 115 348.5C124.7 348.5 129.86 346.35 138.05 340.47L138.85 339.9C142.91 336.99 145.14 335.63 148.18 334.47L150.46 333.61L150.73 333.51C158.35 330.64 161.64 329.21 164.88 327.11C169.23 324.29 171.5 321.05 171.5 317C171.5 313.66 170.23 311.87 167.71 311.31C165.89 310.91 164.47 311.04 159.25 311.81ZM148.21 313.46C149.87 313.49 150.85 313.5 152 313.5C154.14 313.5 156.1 313.3 159.4 312.8C164.45 312.05 165.85 311.93 167.5 312.3C169.53 312.74 170.5 314.11 170.5 317C170.5 320.67 168.42 323.62 164.34 326.27C161.17 328.32 157.92 329.73 150.37 332.57L150.12 332.67L147.82 333.53C144.68 334.73 142.39 336.13 138.26 339.09L137.46 339.66C129.44 345.43 124.46 347.5 115 347.5C110.65 347.5 109.3 346.06 110.2 343.18C111.02 340.55 113.66 336.9 117.78 332.43C119.122 330.98 120.496 329.56 121.9 328.17C124.236 325.849 129.294 321.135 131.834 318.769C132.719 317.944 133.298 317.404 133.35 317.35C133.79 316.91 134.23 316.52 134.67 316.17C137.81 313.66 140.03 313.32 148.21 313.46ZM263.49 280.92C262.49 274.92 262.59 273.6 264.47 268.16C265.74 264.51 267.89 262.21 278.49 252.11C279.792 250.873 281.079 249.619 282.35 248.35C284.69 246.01 285.1 244.34 283.49 243.45C282.44 242.87 280.82 242.74 277.66 242.79L276.94 242.8C273.99 242.86 272.89 242.81 272.19 242.54C271.112 242.098 270.075 241.563 269.09 240.94L267.7 240.1C266.32 239.28 265.29 238.81 264.12 238.51C259.58 237.38 256.31 240.77 251.87 248.91C251.886 248.879 251.75 249.131 251.531 249.539C250.903 250.708 249.587 253.157 249.15 253.92C248.442 255.254 247.597 256.51 246.63 257.67C240.64 264.31 238.5 270.1 238.5 284C238.5 292.3 242.36 296.38 248.91 297.44C251.02 297.78 252.99 297.79 255.85 297.61L256.49 297.57C256.992 297.524 257.496 297.501 258 297.5C262.11 297.5 264.67 287.98 263.49 280.92ZM277.8 251.38C266.99 261.67 264.87 263.94 263.53 267.84C261.59 273.44 261.48 274.92 262.5 281.08C263.6 287.6 261.2 296.5 258 296.5C257.74 296.5 257.43 296.51 257.01 296.54C256.6 296.564 256.19 296.587 255.78 296.61C252.99 296.79 251.08 296.78 249.07 296.45C242.98 295.47 239.5 291.79 239.5 284C239.5 270.33 241.56 264.8 247.37 258.33C248.387 257.119 249.276 255.805 250.02 254.41C250.61 253.37 252.82 249.26 252.75 249.39C256.96 241.66 260 238.52 263.88 239.49C265.051 239.811 266.167 240.307 267.19 240.96L268.57 241.79C269.85 242.56 270.76 243.05 271.82 243.46C272.7 243.82 273.82 243.86 276.96 243.8L277.68 243.79C280.63 243.74 282.18 243.87 283 244.32C283.82 244.77 283.59 245.7 281.65 247.65C280.53 248.76 279.35 249.91 277.8 251.38ZM256.82 282.19C256.77 282.16 254.85 280.78 254.27 280.26C252.07 278.28 251.25 277.72 250.07 277.98C248.51 278.33 248 280.19 248 284C248 291.64 253.09 294.19 256.83 288.55C258.86 285.5 258.78 283.76 256.82 282.19ZM250.5 279.94C250.7 279.89 251.43 280.39 252.93 281.74V281.75C253.62 282.35 255.6 283.78 255.57 283.75C256.64 284.61 256.67 285.19 255.17 287.45C252.67 291.21 250 289.87 250 284C250 281.17 250.33 279.97 250.5 279.94ZM234.8 83.75C238.4 79.6 240.35 76.65 241.94 72.35C246.18 60.83 245.7 57.25 238.5 53.13C235.13 51.21 230.59 51.82 224.56 54.53C220.2 56.47 217.12 58.29 207.26 64.43L204.47 66.14C202.39 67.44 200.46 68.26 198.47 68.74C195.4 69.5 193.63 69.49 185.73 69C172.73 68.2 162.43 68.7 145.8 72.02C135.62 74.05 130.99 75.78 130.32 78.1C129.7 80.23 131.78 81.77 136.74 83.95C137.365 84.2242 139.344 85.0233 141.68 85.9668C145.138 87.3634 149.38 89.0762 151.17 89.87C160.35 93.9 166.29 97.84 169.15 102.53C179.94 120.19 185.36 123.33 196.37 118.93C203.79 115.96 207.79 114.1 212.04 111.34C217.75 107.63 222.04 103.15 224.89 97.45C226.208 94.8067 227.775 92.2953 229.57 89.95C230.413 88.8463 231.29 87.7692 232.2 86.72L234.8 83.75ZM237.5 54.87C243.66 58.39 244.01 60.95 240.06 71.65C238.57 75.69 236.75 78.45 233.29 82.44L230.69 85.41C229.749 86.4915 228.842 87.602 227.97 88.74C226.13 91.16 224.55 93.66 223.11 96.56C220.43 101.91 216.38 106.13 210.96 109.66C206.84 112.33 202.93 114.15 195.63 117.08C185.72 121.04 181.2 118.41 170.85 101.48C167.72 96.34 161.5 92.23 151.98 88.04C150.224 87.2629 146.203 85.6377 142.819 84.2704C140.324 83.2623 138.177 82.3943 137.54 82.11C133.72 80.44 132.08 79.22 132.24 78.65C132.37 78.19 133.38 77.5 135.41 76.74C137.75 75.87 141.3 74.96 146.2 73.99C162.64 70.7 172.77 70.21 185.61 70.99C193.73 71.49 195.59 71.5 198.95 70.69C201.277 70.0983 203.495 69.1396 205.52 67.85L208.31 66.12C218.08 60.05 221.14 58.25 225.38 56.35C230.88 53.88 234.84 53.35 237.5 54.87ZM200.12 96.49C214.89 93.01 225.48 84.06 233.42 71.26C236.43 66.43 236.71 63.44 234.21 62.3C232.19 61.37 228.43 61.85 222.86 63.52C219.81 64.43 216.44 66.4 212.04 69.6C210.988 70.353 209.926 71.1619 208.531 72.2246L208.38 72.34C198.6 79.82 196.02 81.5 193 81.5C189.29 81.5 186.45 86.11 187 90.56C187.65 95.7 192.3 98.32 200.12 96.49ZM233.79 63.21C235.52 64 235.3 66.34 232.58 70.74C224.75 83.33 214.37 92.11 199.89 95.51C192.62 97.22 188.56 94.94 188 90.44C187.5 86.52 189.98 82.5 193 82.5C196.36 82.5 198.9 80.86 208.98 73.14C210.45 72.02 211.55 71.19 212.63 70.4C216.94 67.27 220.24 65.35 223.14 64.48C228.47 62.88 232.08 62.42 233.79 63.21Z" fill="#FEBD9D" fill-opacity="0.15"/>
</svg>
